<?xml version="1.0" encoding="UTF-8" standalone="no"?>
<!-- Created with Inkscape (http://www.inkscape.org/) -->

<svg
   xmlns:dc="http://purl.org/dc/elements/1.1/"
   xmlns:cc="http://creativecommons.org/ns#"
   xmlns:rdf="http://www.w3.org/1999/02/22-rdf-syntax-ns#"
   xmlns:svg="http://www.w3.org/2000/svg"
   xmlns="http://www.w3.org/2000/svg"
   xmlns:sodipodi="http://sodipodi.sourceforge.net/DTD/sodipodi-0.dtd"
   xmlns:inkscape="http://www.inkscape.org/namespaces/inkscape"
   width="400"
   height="400"
   viewBox="0 0 105.83333 105.83334"
   version="1.1"
   id="svg8"
   inkscape:version="0.92.4 (5da689c313, 2019-01-14)"
   sodipodi:docname="icon_catalyst.svg">
  <defs
     id="defs2" />
  <sodipodi:namedview
     id="base"
     pagecolor="#ffffff"
     bordercolor="#666666"
     borderopacity="1.0"
     inkscape:pageopacity="0.0"
     inkscape:pageshadow="2"
     inkscape:zoom="0.49497475"
     inkscape:cx="490.95117"
     inkscape:cy="347.73061"
     inkscape:document-units="mm"
     inkscape:current-layer="layer1"
     showgrid="false"
     inkscape:window-width="1366"
     inkscape:window-height="705"
     inkscape:window-x="-8"
     inkscape:window-y="-8"
     inkscape:window-maximized="1"
     units="px" />
  <metadata
     id="metadata5">
    <rdf:RDF>
      <cc:Work
         rdf:about="">
        <dc:format>image/svg+xml</dc:format>
        <dc:type
           rdf:resource="http://purl.org/dc/dcmitype/StillImage" />
        <dc:title></dc:title>
      </cc:Work>
    </rdf:RDF>
  </metadata>
  <g
     inkscape:label="Camada 1"
     inkscape:groupmode="layer"
     id="layer1"
     transform="translate(0,-191.16665)">
    <path
       style="fill:#000000;stroke-width:0.26458332"
       d=""
       id="path232"
       inkscape:connector-curvature="0" />
    <path
       style="fill:#000000;stroke-width:0.26458332"
       d=""
       id="path230"
       inkscape:connector-curvature="0" />
    <g
       id="g190"
       transform="matrix(3.205806,0,0,3.205806,-184.17662,-193.57092)">
      <path
         style="fill:#e6e6e6;fill-opacity:1;stroke-width:0.26458332"
         d="m 72.815941,149.32073 c -1.120789,-4.44746 -1.393714,-5.03635 -2.625287,-5.66466 l -1.022295,-0.52153 -2.371156,1.81718 c -3.42457,2.62447 -3.552501,2.5102 -1.04433,-0.93282 l 1.723701,-2.36616 -0.642578,-0.64258 c -0.562766,-0.56276 -0.998684,-0.67176 -3.509639,-0.87754 -3.371979,-0.27634 -4.057685,-0.40371 -4.057685,-0.75373 0,-0.14274 0.115667,-0.25954 0.257039,-0.25954 0.141371,0 0.945043,-0.31615 1.785937,-0.70255 0.840894,-0.38641 1.707492,-0.6791 1.925773,-0.65043 0.331404,0.0435 0.336012,0.0111 0.02793,-0.19657 -0.305924,-0.20622 -0.266779,-0.41401 0.229176,-1.21648 0.328965,-0.53228 0.876369,-1.76408 1.216454,-2.73734 l 0.618335,-1.76957 -0.616745,-0.66301 c -0.33921,-0.36465 -0.763175,-0.94702 -0.942143,-1.29415 -0.305317,-0.5922 -0.28622,-0.62131 0.309455,-0.47181 0.349169,0.0876 1.294641,0.23689 2.101049,0.33166 1.37904,0.16208 1.543527,0.11733 2.767071,-0.75292 0.71548,-0.50888 1.577642,-1.01003 1.915915,-1.11367 0.80566,-0.24682 1.531431,-1.95864 2.095507,-4.94249 0.658037,-3.4809 1.088876,-3.35958 1.550609,0.43662 0.106199,0.87313 0.214545,1.70657 0.240769,1.85209 0.02623,0.14552 0.06582,0.513 0.08798,0.81663 0.02838,0.38877 0.490253,0.78004 1.561654,1.32292 1.992153,1.00942 3.420773,0.97583 5.797334,-0.13629 2.192995,-1.02623 2.496133,-0.82216 1.6083,1.08271 -1.459385,3.13114 -1.474834,3.88156 -0.135964,6.60428 0.549579,1.11762 0.718079,1.25014 1.945785,1.53027 2.60033,0.59331 3.351646,0.85831 3.112236,1.09772 -0.130525,0.13053 -1.543783,0.60611 -3.140578,1.05686 l -2.90326,0.81954 -1.918229,1.99559 c -1.542431,1.60464 -1.919022,2.158 -1.92228,2.82456 -0.0054,1.11168 -0.178412,1.30486 -1.669164,1.86408 -0.701987,0.26334 -1.33954,0.6435 -1.416786,0.8448 -0.07725,0.2013 -0.24567,0.30097 -0.374275,0.22148 -0.128606,-0.0795 -0.164622,0.0358 -0.08004,0.25626 0.08459,0.22043 -0.02927,0.97076 -0.25302,1.66739 -0.223747,0.69664 -0.537031,1.77263 -0.696188,2.39109 -0.159157,0.61847 -0.383269,1.12448 -0.498027,1.12448 -0.114758,0 -0.582015,-1.48156 -1.038349,-3.29237 z m 2.50647,-6.01765 c -0.08446,-0.21107 -0.147156,-0.14838 -0.159852,0.15985 -0.01149,0.27891 0.05105,0.43518 0.138964,0.34726 0.08792,-0.0879 0.09732,-0.31612 0.02089,-0.50711 z m -4.644908,-1.20717 c 0.329108,-0.41964 0.319749,-0.429 -0.09989,-0.0999 -0.254662,0.19972 -0.463021,0.40808 -0.463021,0.46302 0,0.21776 0.217272,0.0776 0.562915,-0.36313 z m 4.914739,-0.90892 c 1.396308,-0.59172 2.720888,-2.10631 3.158475,-3.61155 l 0.411092,-1.41411 1.284439,0.09 c 0.706442,0.0495 1.200895,0.007 1.098785,-0.0937 -0.10211,-0.10099 -0.724188,-0.21114 -1.382395,-0.24477 -1.243924,-0.0636 -3.236515,0.84633 -4.006329,1.82943 -0.318043,0.40617 -0.307116,0.41491 0.109841,0.0879 0.323089,-0.25338 0.463021,-0.26955 0.463021,-0.0535 0,0.42338 -1.30192,1.59819 -1.824573,1.64644 -0.233412,0.0215 -0.604812,0.0513 -0.825332,0.0661 -0.638006,0.0429 -2.203628,1.38541 -1.99997,1.71494 0.241943,0.39147 2.575538,0.38004 3.512946,-0.0172 z m -4.367547,-4.83323 c -0.07256,-0.56427 1.279075,-2.26149 1.801009,-2.26149 0.162312,0 0.221529,0.11906 0.131592,0.26458 -0.08994,0.14552 -0.109375,0.26459 -0.0432,0.26459 0.201983,0 1.762988,-2.53892 1.762988,-2.86744 0,-0.50709 -2.041463,-0.35463 -3.467842,0.25899 -1.002898,0.43143 -1.456295,0.50342 -1.901132,0.30185 -0.862881,-0.391 -1.32888,0.16997 -0.618823,0.74494 0.485099,0.39281 0.505938,0.5346 0.219219,1.49158 -0.397876,1.32799 -0.400289,2.24369 -0.0093,3.54853 0.276918,0.92427 0.250613,1.08685 -0.264583,1.63525 -0.314641,0.33492 -0.572074,0.71095 -0.572074,0.83562 0,0.12467 0.682167,-0.65127 1.515927,-1.72432 0.920757,-1.18501 1.488577,-2.16367 1.446264,-2.49268 z m -5.838858,-0.0558 c 0.32927,-0.39915 0.307622,-0.41062 -0.232187,-0.12298 -0.615674,0.32806 -0.767272,0.56317 -0.363126,0.56317 0.127703,0 0.395594,-0.19808 0.595313,-0.44019 z m 1.155003,-0.61511 c 0.09269,-0.14998 -0.01351,-0.19434 -0.248969,-0.10398 -0.458368,0.17589 -0.542233,0.36553 -0.161648,0.36553 0.136933,0 0.32171,-0.1177 0.410617,-0.26155 z m 1.49083,-0.46605 c 0.315546,-0.40235 0.311124,-0.42434 -0.03375,-0.16782 -0.218281,0.16236 -0.575469,0.36132 -0.79375,0.44213 -0.331985,0.12291 -0.326468,0.15035 0.03375,0.16782 0.236843,0.0115 0.594031,-0.18747 0.79375,-0.44213 z m 0.42376,-3.401 c -0.08792,-0.0879 -0.316122,-0.0973 -0.507118,-0.0209 -0.211067,0.0845 -0.148372,0.14716 0.159852,0.15985 0.278915,0.0115 0.435185,-0.051 0.347266,-0.13896 z m 6.514086,-1.833 c -0.209874,-0.54692 -0.357012,-0.48247 -0.357012,0.15638 0,0.29963 0.113863,0.47441 0.253028,0.38841 0.139165,-0.086 0.185958,-0.33116 0.103984,-0.54479 z"
         id="path212"
         inkscape:connector-curvature="0" />
      <path
         style="fill:#dcdcdc;fill-opacity:1;stroke-width:0.26458332"
         d="m 72.767992,148.97508 c -1.056865,-4.1207 -1.332715,-4.68405 -2.613558,-5.33748 l -1.007582,-0.51403 -2.45723,1.84776 c -1.351477,1.01628 -2.514669,1.79033 -2.584872,1.72013 -0.0702,-0.0702 0.665765,-1.23674 1.635485,-2.5923 l 1.763128,-2.46466 -0.78064,-0.6975 c -0.70546,-0.63033 -1.060095,-0.71576 -3.682367,-0.88706 -1.595949,-0.10426 -3.060066,-0.28742 -3.253593,-0.40703 -0.245024,-0.15143 0.124713,-0.4447 1.217667,-0.96582 0.863243,-0.4116 1.609468,-0.8384 1.658277,-0.94845 0.04881,-0.11005 0.194141,-0.13495 0.322959,-0.0553 0.324668,0.20065 1.598335,-0.49363 2.234755,-1.21818 0.596203,-0.67877 0.198733,-0.51142 -1.142481,0.48102 -0.482501,0.35703 -0.93457,0.59185 -1.004599,0.52182 -0.07003,-0.07 0.294979,-0.89562 0.811128,-1.83463 0.516149,-0.93902 0.938452,-1.96062 0.938452,-2.27022 0,-0.3096 0.160601,-0.71293 0.356889,-0.89629 0.296016,-0.27652 0.181663,-0.55506 -0.670437,-1.63305 -0.565029,-0.71481 -0.990178,-1.33681 -0.944773,-1.38222 0.0454,-0.0454 0.55546,0.0271 1.133458,0.1611 1.817457,0.42138 3.001721,0.30789 3.912829,-0.37496 0.463233,-0.34718 1.347512,-0.885 1.965064,-1.19516 1.332001,-0.66897 1.700641,-1.41279 2.34015,-4.72179 0.729283,-3.77352 1.053851,-3.69686 1.586163,0.37462 0.418199,3.19867 0.42736,3.21239 2.717658,4.0693 1.232806,0.46125 1.640214,0.50081 2.736545,0.26568 0.708455,-0.15193 1.755674,-0.51478 2.327153,-0.80633 1.978164,-1.00918 2.364294,-0.4597 1.206775,1.71729 -1.086199,2.04286 -1.116648,3.17461 -0.143936,5.35004 l 0.840927,1.88069 2.374997,0.58684 c 1.306248,0.32277 2.277293,0.6818 2.157873,0.79787 -0.11942,0.11606 -1.348221,0.52166 -2.730669,0.90134 -3.437264,0.944 -3.851926,1.13236 -4.597196,2.08823 -1.289594,1.65403 -2.28197,2.59824 -2.28197,2.17124 0,-0.22727 -0.20836,-0.40381 -0.463021,-0.39232 -0.276606,0.0125 -0.329867,0.0746 -0.132292,0.15434 0.35878,0.14477 0.459477,2.40706 0.12824,2.88106 -0.106912,0.153 -0.768582,0.49357 -1.470376,0.75683 -0.701795,0.26326 -1.594764,0.77802 -1.984375,1.14391 -0.389612,0.36589 -0.480276,0.50156 -0.201476,0.30151 0.475638,-0.34131 0.494984,-0.31478 0.313608,0.43 -0.476728,1.95759 -1.286589,4.36563 -1.46823,4.36563 -0.109613,0 -0.588642,-1.51805 -1.064507,-3.37344 z m 1.579929,-2.54853 c 0,-0.14553 -0.174807,-0.0335 -0.388461,0.249 -0.213653,0.28248 -0.38846,0.63266 -0.38846,0.77818 0,0.14552 0.174807,0.0335 0.38846,-0.24901 0.213654,-0.28247 0.388461,-0.63265 0.388461,-0.77817 z m 1.078525,-2.35743 c 0.164535,-0.61232 0.435662,-1.20078 0.602503,-1.3077 0.195145,-0.12505 0.139988,-0.19583 -0.154633,-0.19843 -0.289654,-0.003 -0.511224,0.26337 -0.602847,0.72355 -0.07968,0.40018 -0.250509,1.05585 -0.379627,1.45705 -0.136845,0.4252 -0.136701,0.66884 3.44e-4,0.58414 0.129308,-0.0799 0.369725,-0.64629 0.53426,-1.25861 z M 71.305213,141.644 c 0.394824,-0.28511 0.787667,-0.32381 1.547387,-0.15246 1.260097,0.28422 3.25448,-0.25344 4.345528,-1.1715 0.761461,-0.64073 1.467122,-1.99937 1.773807,-3.41519 0.160625,-0.74152 0.197921,-0.75651 1.594237,-0.64072 1.70903,0.14173 1.702071,-0.18292 -0.0094,-0.43957 -1.63058,-0.24452 -2.510082,0.25571 -8.060912,4.58479 -3.226795,2.51657 -3.825221,3.13712 -1.190625,1.23465 z m 2.855517,-2.17124 c 0.254811,-0.41229 2.568441,-1.98171 2.568441,-1.74227 0,0.37639 -1.403579,1.57836 -2.083655,1.78436 -0.346032,0.10481 -0.563887,0.0859 -0.484786,-0.0421 z m -4.42209,-0.54106 c 1.120702,-1.41417 1.793222,-2.49862 1.740931,-2.80728 -0.04723,-0.2788 0.241265,-0.84372 0.647323,-1.26755 0.816771,-0.85253 1.519904,-1.06869 0.765819,-0.23543 -0.263389,0.29104 -0.370852,0.52916 -0.238807,0.52916 0.423484,0 2.488199,-3.5183 2.475831,-4.21884 -0.0066,-0.37177 -0.183977,-1.03314 -0.394251,-1.4697 -0.210275,-0.43656 -0.332856,-0.55562 -0.272403,-0.26458 0.06045,0.29104 0.187796,0.91612 0.282982,1.38906 l 0.173068,0.8599 -1.277794,0.0111 c -0.706978,0.006 -1.680866,0.2258 -2.180088,0.49174 -0.658347,0.3507 -1.123315,0.42406 -1.719791,0.27135 -1.569147,-0.40173 -2.138015,-0.51433 -1.809685,-0.35819 0.181901,0.0865 0.330729,0.27709 0.330729,0.42354 0,0.14645 0.26631,0.48191 0.591801,0.74548 0.540481,0.43766 0.563424,0.55768 0.264583,1.38411 -0.406998,1.12553 -0.420235,2.7705 -0.03127,3.88627 0.252397,0.72403 0.221349,0.93423 -0.210993,1.42855 -0.772857,0.88364 -1.22154,1.50564 -1.086097,1.50564 0.06709,0 0.943741,-1.03695 1.948116,-2.30432 z m 13.406676,-2.36883 c -0.181901,-0.0734 -0.479557,-0.0734 -0.661458,0 -0.181901,0.0734 -0.03307,0.13346 0.330729,0.13346 0.363802,0 0.51263,-0.0601 0.330729,-0.13346 z m -15.874999,-0.89701 c 0.545703,-0.15155 0.992187,-0.37942 0.992187,-0.50637 0,-0.26666 -1.860729,0.18681 -2.235729,0.54487 -0.331533,0.31655 0.0023,0.30621 1.243542,-0.0385 z m 6.988249,-7.98974 c -0.0734,-0.1819 -0.133452,-0.0331 -0.133452,0.33073 0,0.3638 0.06005,0.51263 0.133452,0.33073 0.0734,-0.1819 0.0734,-0.47956 0,-0.66146 z"
         id="path210"
         inkscape:connector-curvature="0" />
      <path
         style="fill:#d2d2d2;fill-opacity:1;stroke-width:0.26458332"
         d="m 72.910524,149.37196 c -1.011869,-4.08509 -1.476912,-5.07914 -2.660135,-5.68617 l -0.968255,-0.49674 1.25709,-0.97939 c 0.911725,-0.71032 1.407698,-0.93129 1.805289,-0.80431 1.021697,0.32631 2.717729,0.14653 3.793052,-0.40206 1.550563,-0.79104 2.365037,-1.9639 2.824099,-4.06675 0.103334,-0.47335 0.329369,-0.7276 0.646851,-0.7276 0.619906,0 2.907868,0.43315 3.602947,0.6821 0.37851,0.13557 0.453165,0.10621 0.26222,-0.10313 -0.400571,-0.43915 -3.532411,-1.17482 -4.242582,-0.99658 -0.905858,0.22736 -3.454401,2.03364 -8.911988,6.31639 -2.659103,2.08669 -5.179892,4.01967 -5.601753,4.29552 l -0.767021,0.50154 0.347444,-0.6492 c 0.598562,-1.11843 2.919732,-4.22217 5.906241,-7.89751 3.458381,-4.25604 4.943198,-6.49336 4.921484,-7.41567 -0.0181,-0.76887 -0.977748,-3.82236 -1.005732,-3.20013 -0.0098,0.21828 0.137928,1.12244 0.328321,2.00924 l 0.346168,1.61237 -1.124196,0.017 c -0.618308,0.009 -1.55126,0.21965 -2.073226,0.46734 -0.597546,0.28355 -1.268252,0.39519 -1.810954,0.30142 -1.36659,-0.23611 -2.49284,-0.37953 -1.986404,-0.25295 0.254661,0.0636 0.46302,0.27152 0.46302,0.46193 0,0.19041 0.244773,0.50955 0.543939,0.7092 0.52305,0.34906 0.528962,0.42036 0.153944,1.85682 -0.370945,1.42084 -0.310419,2.43315 0.222594,3.7229 0.129578,0.31354 -0.117263,0.8264 -0.797023,1.65595 l -0.984738,1.20175 -0.66377,-0.66377 c -0.41868,-0.41868 -0.967957,-0.66648 -1.487588,-0.6711 -1.609112,-0.0143 -4.800558,-0.33362 -5.321732,-0.53244 -0.442837,-0.16894 -0.270178,-0.32127 1.058333,-0.93371 0.873125,-0.4025 1.627435,-0.83169 1.676244,-0.95374 0.04881,-0.12205 0.194141,-0.15678 0.322959,-0.0772 0.291483,0.18014 1.870826,-0.6172 2.251417,-1.13665 0.155029,-0.2116 0.869404,-0.53372 1.5875,-0.71584 0.925807,-0.2348 1.32901,-0.47667 1.385999,-0.8314 0.0487,-0.30318 -0.0034,-0.38603 -0.132292,-0.21028 -0.116963,0.15949 -0.569161,0.37742 -1.004884,0.48428 -0.435723,0.10685 -1.49485,0.66348 -2.353617,1.23694 -0.858766,0.57347 -1.617475,0.98658 -1.686019,0.91804 -0.06855,-0.0685 0.239138,-0.71582 0.68374,-1.43839 0.444601,-0.72257 0.947055,-1.82986 1.116562,-2.46065 0.169508,-0.63079 0.409165,-1.20987 0.532571,-1.28686 0.123405,-0.077 -0.194719,-0.66959 -0.706944,-1.31688 -0.512224,-0.6473 -0.820981,-1.21369 -0.686126,-1.25864 0.134855,-0.045 0.946673,0.0335 1.80404,0.17425 1.521839,0.24989 1.590541,0.23454 2.893648,-0.64676 0.734138,-0.4965 1.706796,-1.03241 2.161462,-1.1909 0.989387,-0.34491 1.34921,-1.13931 2.181102,-4.81536 0.321082,-1.41883 0.679823,-2.57969 0.797203,-2.57969 0.236238,0 0.424053,0.9177 0.676868,3.30729 0.09237,0.87313 0.225756,1.79586 0.296403,2.05052 0.08766,0.316 -0.02423,0.46671 -0.352403,0.47464 -0.264468,0.006 -0.06413,0.16931 0.445191,0.36206 0.509323,0.19275 1.509904,0.61791 2.223513,0.94481 1.566918,0.7178 2.94349,0.60925 4.909806,-0.38716 2.383339,-1.20773 2.53943,-0.94026 1.232196,2.11138 -0.881585,2.058 -0.863698,2.76159 0.124718,4.90599 l 0.817317,1.77319 2.247577,0.59375 c 1.281337,0.33849 2.148223,0.6931 2.016469,0.82485 -0.127109,0.12711 -1.536076,0.59486 -3.13104,1.03945 l -2.899931,0.80834 -1.641401,1.77409 c -0.90277,0.97575 -1.646911,1.62526 -1.653645,1.44336 -0.0067,-0.1819 -0.280136,-0.31692 -0.607558,-0.30004 -0.443825,0.0229 -0.478162,0.0614 -0.134936,0.15119 0.349864,0.0916 0.454872,0.38588 0.437446,1.22608 -0.03484,1.67972 -0.187197,1.97908 -1.108253,2.17757 -0.848754,0.1829 -4.237768,2.24093 -4.030885,2.44781 0.06039,0.0604 0.47385,-0.14941 0.918791,-0.46624 0.444941,-0.31683 0.808983,-0.52095 0.808983,-0.45361 0,0.0673 -0.225611,0.87912 -0.501358,1.80395 -0.275747,0.92484 -0.575672,2.00894 -0.666499,2.40912 -0.09083,0.40019 -0.260866,0.72761 -0.377862,0.72761 -0.116996,0 -0.544501,-1.33945 -0.950011,-2.97656 z m 1.433345,-2.93973 c -0.0042,-0.31575 -0.354418,0.12396 -0.813497,1.0215 -0.21271,0.41586 -0.154161,0.39542 0.273443,-0.0955 0.299258,-0.34354 0.542283,-0.76026 0.540054,-0.92604 z m 0.957768,-1.95507 c 0.241633,-0.83674 0.572381,-1.60882 0.734995,-1.71574 0.188844,-0.12415 0.138607,-0.19585 -0.13905,-0.19843 -0.466399,-0.004 -0.755911,0.51409 -0.755911,1.35364 0,0.28637 -0.181651,0.87194 -0.40367,1.30128 -0.222018,0.42933 -0.284875,0.78061 -0.139682,0.78061 0.145192,0 0.461685,-0.68461 0.703318,-1.52136 z m -0.953716,-5.18066 c 0,-0.0481 0.535781,-0.47221 1.190625,-0.94249 0.654843,-0.47027 1.190625,-0.76486 1.190625,-0.65464 0,0.40982 -1.438974,1.68457 -1.901585,1.68457 -0.263816,0 -0.479665,-0.0393 -0.479665,-0.0874 z m -2.899664,-3.36879 c -0.0059,-0.22744 0.346435,-0.75573 0.782997,-1.17398 1.021916,-0.97906 1.029265,-0.52013 0.01075,0.67145 -0.507387,0.5936 -0.786782,0.77049 -0.79375,0.50253 z"
         id="path208"
         inkscape:connector-curvature="0" />
      <path
         style="fill:#c8c8c8;fill-opacity:1;stroke-width:0.26458332"
         d="m 73.688256,151.82225 c -0.100918,-0.16329 -0.530439,-1.62972 -0.954491,-3.25874 -1.015765,-3.90213 -1.201494,-4.31362 -2.118385,-4.69341 -0.427201,-0.17695 -0.8351,-0.41618 -0.906442,-0.53161 -0.07134,-0.11544 0.386984,-0.63328 1.018502,-1.15076 1.052633,-0.86255 1.223585,-0.91884 2.053619,-0.67614 2.419965,0.70758 5.409505,-1.24825 6.061363,-3.9655 l 0.335,-1.39644 1.355562,0.17563 c 0.745559,0.0966 1.816469,0.31169 2.379799,0.478 0.857233,0.25307 1.072937,0.23599 1.322918,-0.10477 0.266414,-0.36316 0.527328,-0.34381 2.415344,0.17916 1.223156,0.3388 1.949133,0.65483 1.719792,0.74865 -0.218281,0.0893 -1.746795,0.56928 -3.3967,1.06662 -2.214362,0.66749 -3.113605,1.06685 -3.434371,1.52523 -0.878861,1.2559 -2.280806,2.65409 -2.375719,2.36935 -0.05375,-0.16124 -0.474755,-0.27533 -0.935571,-0.25352 -0.793736,0.0376 -0.799769,0.0454 -0.114607,0.14944 0.682858,0.10367 0.719103,0.17926 0.649142,1.35373 -0.09197,1.544 -0.254103,1.8125 -1.222945,2.02529 -0.423794,0.0931 -1.448307,0.64402 -2.276695,1.22431 -0.828388,0.58029 -1.556067,1.00516 -1.617063,0.94416 -0.061,-0.061 0.297708,-0.81113 0.797122,-1.66697 0.499415,-0.85584 0.983923,-1.99531 1.076686,-2.53216 0.147424,-0.85319 0.275807,-0.99069 1.019587,-1.09203 0.672205,-0.0916 0.628642,-0.10886 -0.207407,-0.0822 -1.027584,0.0327 -1.06244,0.0644 -1.199659,1.09229 -0.07773,0.58223 -0.532129,1.74165 -1.009777,2.5765 -1.128511,1.97243 -0.735561,2.77559 0.713396,1.45814 0.609908,-0.55456 0.641595,-0.55909 0.462829,-0.0661 -0.105548,0.29104 -0.419383,1.3498 -0.697413,2.35279 -0.558897,2.01622 -0.646178,2.18355 -0.913416,1.75115 z m -9.394501,-5.51265 c 0,-0.11995 0.651514,-1.10221 1.447808,-2.18281 1.733107,-2.35189 1.171936,-1.63337 5.09216,-6.51999 3.234941,-4.0324 4.307948,-5.69011 4.307948,-6.65542 0,-0.28387 -0.234256,-1.2688 -0.520568,-2.18872 -0.321698,-1.03362 -0.426371,-1.76679 -0.273994,-1.91916 0.152377,-0.15238 0.967423,0.0857 2.133488,0.62316 2.198367,1.01329 3.381238,0.98798 5.586245,-0.11953 2.344336,-1.17749 2.480906,-0.93184 1.17576,2.11493 -0.884625,2.06509 -0.864306,2.76027 0.144658,4.94925 0.988392,2.14434 0.840207,2.52176 -0.767405,1.95456 -2.268577,-0.8004 -3.249669,-0.77793 -4.775302,0.10935 -0.768987,0.44723 -1.326693,0.92878 -1.239346,1.07011 0.193394,0.31292 -1.283283,1.84017 -1.773913,1.83467 -0.193095,-0.002 0.125168,-0.41441 0.707252,-0.91611 1.845496,-1.59062 0.696502,-1.00365 -1.671508,0.8539 -9.95778,7.81124 -9.573283,7.53042 -9.573283,6.99181 z m 2.499479,-5.51104 c -0.305587,-0.48445 -2.206297,-0.83278 -4.748438,-0.87019 -0.873125,-0.0129 -1.741963,-0.12135 -1.930752,-0.24111 -0.517466,-0.32825 -0.344302,-0.43587 3.227019,-2.00547 0.858467,-0.37729 1.694205,-0.86837 1.857194,-1.09127 0.162989,-0.2229 0.889217,-0.55651 1.613841,-0.74137 0.950334,-0.24243 1.33998,-0.47877 1.398175,-0.84805 0.04948,-0.31399 -0.0016,-0.39692 -0.131983,-0.21447 -0.116963,0.16362 -0.590533,0.37945 -1.052376,0.47961 -0.461844,0.10017 -1.517488,0.65691 -2.345876,1.23719 -0.828388,0.58029 -1.564706,0.99653 -1.636262,0.92497 -0.07156,-0.0716 0.28468,-0.82169 0.791636,-1.66697 0.506956,-0.84528 1.001463,-1.98335 1.098904,-2.52906 0.159173,-0.89142 0.263281,-0.99621 1.025073,-1.03183 0.748768,-0.035 0.766883,-0.0521 0.154934,-0.14652 -0.448283,-0.0691 -0.99128,-0.52227 -1.537794,-1.28327 -0.464652,-0.64702 -0.748126,-1.1755 -0.629944,-1.1744 0.118183,0.001 0.951702,0.12158 1.852265,0.26774 l 1.637386,0.26575 1.515331,-1.06149 c 0.833432,-0.58383 1.665682,-1.0615 1.849443,-1.0615 0.875174,0 1.744383,-2.05215 2.493491,-5.88698 0.163453,-0.83674 0.39551,-1.52135 0.515683,-1.52135 0.120174,0 0.355626,1.0418 0.523228,2.3151 0.167603,1.27331 0.360763,2.583 0.429244,2.91042 0.08416,0.40239 -6.87e-4,0.59531 -0.261788,0.59531 -0.651223,0 -0.701312,0.41355 -0.27351,2.2582 0.541804,2.33621 0.477971,2.54697 -0.805479,2.65941 -0.582083,0.051 -1.506169,0.29378 -2.053523,0.53951 -0.878281,0.39431 -1.165962,0.40582 -2.44888,0.0981 -0.799529,-0.19181 -1.532396,-0.27003 -1.628594,-0.17383 -0.0962,0.0962 0.08306,0.1749 0.398359,0.1749 0.315295,0 0.573263,0.16014 0.573263,0.35587 0,0.19573 0.221417,0.55625 0.492036,0.80115 0.45669,0.4133 0.466003,0.55798 0.129646,2.01393 -0.312105,1.35097 -0.308588,1.72479 0.02534,2.69404 0.383641,1.11352 0.378782,1.13729 -0.460375,2.25223 -0.928953,1.23425 -1.239153,1.36646 -1.65592,0.70574 z m 4.644891,-4.77331 c -7.94e-4,-0.40783 1.232043,-1.84578 1.421012,-1.65742 0.07905,0.0788 -0.208194,0.55505 -0.638328,1.05834 -0.430135,0.50328 -0.782342,0.77287 -0.782684,0.59908 z"
         id="path206"
         inkscape:connector-curvature="0" />
      <path
         style="fill:#bebebe;fill-opacity:1;stroke-width:0.26458332"
         d="m 73.702111,151.84467 c -0.0933,-0.15096 -0.516871,-1.63043 -0.941275,-3.28773 -0.980839,-3.83017 -1.226456,-4.34816 -2.330286,-4.91446 l -0.90362,-0.46359 1.102357,-0.87308 c 0.996476,-0.78922 1.218748,-0.85713 2.314117,-0.70699 1.529209,0.2096 2.951316,-0.21054 4.201926,-1.2414 1.016229,-0.83766 1.94929,-2.52978 1.95928,-3.55317 0.0071,-0.72652 0.33795,-0.74465 2.925573,-0.16029 1.697518,0.38335 1.960659,0.38845 2.215268,0.0429 0.158909,-0.21565 0.40799,-0.36054 0.553511,-0.32196 2.283253,0.60525 3.307291,0.95619 3.307291,1.1334 0,0.11895 -1.101328,0.53881 -2.447395,0.93302 -3.507755,1.02728 -3.8402,1.18618 -4.410897,2.1082 -0.643039,1.03891 -2.13754,2.48821 -2.13754,2.0729 0,-0.21555 -0.584427,-0.28682 -1.916991,-0.23375 l -1.916991,0.0763 -0.168684,1.17643 c -0.09278,0.64704 -0.59935,1.91084 -1.125718,2.80845 -0.526368,0.89761 -0.957033,1.76082 -0.957033,1.91823 0,0.45841 0.664406,0.33182 1.433461,-0.27312 0.874139,-0.6876 0.688527,-1.00129 -0.234579,-0.39645 -0.368343,0.24135 -0.669715,0.38507 -0.669715,0.31938 0,-0.0657 0.404389,-0.81256 0.898643,-1.65974 0.494253,-0.84717 0.972875,-1.97069 1.063604,-2.49669 0.161833,-0.93824 0.193176,-0.9597 1.65229,-1.13119 0.818031,-0.0961 1.535978,-0.12616 1.595439,-0.0667 0.05946,0.0595 0.02521,0.73303 -0.07611,1.49681 -0.142223,1.07213 -0.30357,1.41991 -0.707786,1.52562 -0.997358,0.26081 -2.658712,1.26758 -2.729467,1.65404 -0.126703,0.69205 -1.206031,4.61603 -1.293832,4.70383 -0.04687,0.0469 -0.161548,-0.0383 -0.254845,-0.18926 z m -9.408356,-5.49884 c 0,-0.28553 4.73959,-6.62816 6.442094,-8.62096 1.169518,-1.36894 1.542932,-2.00464 0.969269,-1.6501 -0.156996,0.097 -0.190403,-0.0289 -0.08357,-0.31511 0.192784,-0.51641 1.15144,-1.30504 1.463861,-1.20423 0.105984,0.0342 0.611999,-0.56045 1.124479,-1.32144 1.084548,-1.61046 1.152357,-2.38652 0.399673,-4.57423 -0.72352,-2.10295 -0.463361,-2.26909 1.869407,-1.19385 2.228445,1.02715 3.4648,1.00734 5.578753,-0.0894 2.350973,-1.21973 2.493393,-0.96905 1.184881,2.08557 -0.884625,2.06509 -0.864306,2.76027 0.144658,4.94925 0.988392,2.14434 0.840207,2.52176 -0.767405,1.95456 -2.321757,-0.81916 -3.286201,-0.80399 -4.777202,0.0751 -1.342414,0.79152 -3.492866,2.38983 -6.431705,4.78035 -4.0655,3.30696 -7.117193,5.50422 -7.117193,5.12448 z m 8.731249,-11.54182 c 0,-0.14553 -0.238125,-0.0491 -0.529166,0.2143 -0.291042,0.26339 -0.529167,0.59795 -0.529167,0.74347 0,0.14552 0.238125,0.0491 0.529167,-0.2143 0.291041,-0.26339 0.529166,-0.59795 0.529166,-0.74347 z m -6.287662,5.91713 c -0.395952,-0.33187 -1.203461,-0.5567 -2.38125,-0.663 -4.298799,-0.38799 -4.598755,-0.4413 -4.326773,-0.76902 0.144955,-0.17466 1.15041,-0.65601 2.234343,-1.06966 1.083933,-0.41365 2.299478,-1.03453 2.701211,-1.37973 0.661801,-0.56867 2.152877,-1.15472 2.947502,-1.15849 0.389091,-0.002 0.535653,-0.68665 0.368382,-1.72126 l -0.12833,-0.79375 -0.143399,0.90053 c -0.12085,0.75893 -0.304045,0.95597 -1.165055,1.25312 -0.561911,0.19393 -1.603983,0.77095 -2.315717,1.28228 -0.711732,0.51133 -1.363562,0.92969 -1.44851,0.92969 -0.08495,0 0.261606,-0.74414 0.770121,-1.65364 0.508515,-0.90951 1.008262,-2.10013 1.110551,-2.64584 0.162879,-0.86895 0.278967,-0.99218 0.934667,-0.99218 0.41178,0 0.815412,-0.10796 0.896961,-0.23991 0.08155,-0.13195 -0.09393,-0.17657 -0.38996,-0.0992 -0.583869,0.15268 -1.295558,-0.37353 -2.176192,-1.60906 l -0.539916,-0.7575 1.163784,0.17967 c 0.640081,0.0988 1.524003,0.23957 1.96427,0.31278 0.623575,0.10369 1.032895,-0.0534 1.852084,-0.71077 0.578378,-0.46413 1.550388,-1.06035 2.160022,-1.32493 1.039207,-0.45101 1.141179,-0.5936 1.632897,-2.28328 0.288459,-0.99122 0.661312,-2.48683 0.828562,-3.32357 0.16725,-0.83675 0.400238,-1.52136 0.517752,-1.52136 0.216962,0 0.807155,3.42056 0.807155,4.678 0,0.37819 -0.198735,0.83294 -0.441633,1.01055 -0.41244,0.30159 -0.412394,0.44343 6.88e-4,2.14584 0.243279,1.0026 0.442014,1.95555 0.441633,2.11767 -3.7e-4,0.16212 -0.538525,0.36848 -1.195877,0.45858 -0.657351,0.0901 -1.571401,0.35837 -2.031221,0.59615 -0.722375,0.37356 -1.022714,0.38755 -2.209143,0.10293 -0.755209,-0.18117 -1.5378,-0.26406 -1.739091,-0.1842 -0.216669,0.086 -0.123107,0.15373 0.229328,0.16609 0.327422,0.0115 0.595312,0.16035 0.595312,0.33079 0,0.17044 0.194614,0.52494 0.432475,0.78777 0.373909,0.41317 0.391772,0.68476 0.131909,2.00562 -0.207543,1.05492 -0.218561,1.81368 -0.0356,2.45163 0.4091,1.42645 0.33104,1.79082 -0.59493,2.77698 -0.856834,0.91253 -0.86203,0.91401 -1.459017,0.41364 z m 7.875162,-1.46286 c 0,-0.0419 0.44057,-0.41216 0.979045,-0.82288 l 0.979045,-0.74675 -0.516024,0.69685 c -0.416999,0.56313 -1.442066,1.18352 -1.442066,0.87278 z"
         id="path204"
         inkscape:connector-curvature="0" />
      <path
         style="fill:#b4b4b4;fill-opacity:1;stroke-width:0.26458332"
         d="m 73.750969,151.63852 c -0.06643,-0.11882 -0.444162,-1.40667 -0.839414,-2.86188 -1.198083,-4.411 -1.489393,-4.97148 -2.750294,-5.29152 l -0.708132,-0.17974 1.058334,-0.90197 c 1.007124,-0.85832 1.130694,-0.89407 2.553802,-0.73885 2.932396,0.31985 5.492614,-1.57727 5.944802,-4.4051 0.119439,-0.74693 0.246906,-0.98187 0.402189,-0.74128 0.185772,0.28782 0.27496,0.27966 0.487863,-0.0447 0.193751,-0.29515 0.26157,-0.30699 0.264583,-0.0462 0.0025,0.22028 0.274608,0.32789 0.731656,0.28939 0.400182,-0.0337 1.306315,0.0324 2.013628,0.14678 0.907824,0.14688 1.343416,0.1152 1.481179,-0.10771 0.148085,-0.2396 0.619683,-0.20265 1.955123,0.1532 0.96798,0.25793 1.759965,0.5374 1.759965,0.62105 0,0.12225 -3.401324,1.19264 -5.622572,1.76941 -0.254759,0.0661 -0.781077,0.55871 -1.169594,1.09458 -1.238894,1.70875 -1.902343,2.15021 -2.77454,1.84616 -0.418761,-0.14598 -1.086703,-0.17574 -1.484317,-0.0661 -0.397614,0.10961 -0.959098,0.21129 -1.247742,0.22595 -0.414245,0.0211 -0.560948,0.27771 -0.696355,1.21831 -0.09435,0.6554 -0.602022,1.90556 -1.128158,2.77812 -0.526136,0.87257 -0.956916,1.73531 -0.957291,1.91721 -0.001,0.50704 0.640658,0.39449 1.469948,-0.25783 0.620582,-0.48815 0.717812,-0.50927 0.569888,-0.12379 -0.0981,0.25563 -0.369822,1.2051 -0.60384,2.10992 -0.45906,1.77496 -0.526415,1.92627 -0.710711,1.5966 z m 0.874129,-5.53162 c 0.575157,-1.09208 1.045739,-2.26121 1.045739,-2.59806 0,-0.54712 0.159248,-0.63118 1.4926,-0.78789 0.82093,-0.0965 1.525866,-0.14216 1.566525,-0.1015 0.04066,0.0407 -0.0059,0.71652 -0.103537,1.50191 -0.167989,1.35175 -0.22939,1.44594 -1.15016,1.76427 -0.534983,0.18495 -1.630644,0.75716 -2.434802,1.27157 l -1.462105,0.9353 z m -10.331343,0.2671 c 0,-0.27307 1.71779,-2.5807 5.006431,-6.72548 6.290988,-7.92874 6.285873,-7.91814 5.334711,-11.04583 -0.276502,-0.90921 -0.397229,-1.71832 -0.268284,-1.79801 0.128946,-0.0797 1.090726,0.23092 2.137288,0.69026 2.245842,0.98571 3.401687,0.96166 5.605598,-0.11661 2.358247,-1.15378 2.438318,-0.99362 1.097373,2.19508 -0.835143,1.98592 -0.792757,2.85565 0.249596,5.12148 0.386777,0.84076 0.635617,1.63807 0.552977,1.77178 -0.08708,0.1409 -0.597362,0.0854 -1.213639,-0.13207 -0.584862,-0.20635 -1.644258,-0.45224 -2.354214,-0.54642 -1.167366,-0.15485 -1.438268,-0.081 -2.832354,0.77261 -0.847839,0.51911 -2.732151,1.87927 -4.187359,3.02258 -1.455208,1.1433 -3.895989,3.06193 -5.423958,4.26362 -2.861935,2.25079 -3.704166,2.82537 -3.704166,2.52701 z m 2.496138,-5.66189 c -0.454848,-0.46147 -1.048655,-0.59534 -3.538472,-0.79771 -1.645546,-0.13374 -3.063016,-0.31429 -3.149934,-0.4012 -0.225966,-0.22597 0.366506,-0.55427 2.443767,-1.35412 1.002855,-0.38616 2.03564,-0.91437 2.295076,-1.1738 0.644215,-0.64422 1.264532,-0.94004 2.400833,-1.14491 0.987225,-0.178 1.274223,-0.61366 1.282312,-1.94654 0.002,-0.32742 0.138254,-0.59531 0.302815,-0.59531 0.206452,0 0.234517,0.30757 0.09053,0.99219 -0.274994,1.30755 -0.287655,2.88956 -0.03231,4.03683 0.182532,0.82011 0.104565,1.04486 -0.670757,1.93354 l -0.877295,1.00557 z m 8.351778,-1.7937 c 0,-0.11051 0.26789,-0.3655 0.595312,-0.56664 0.593199,-0.36441 0.593523,-0.3637 0.09128,0.20094 -0.539244,0.60623 -0.686597,0.68472 -0.686597,0.3657 z m -11.317176,-2.99483 c 0.522469,-0.93446 1.033634,-2.1455 1.135923,-2.69121 0.157836,-0.84205 0.291624,-0.99489 0.884136,-1.01004 0.383988,-0.01 1.08266,-0.0681 1.552606,-0.12947 l 0.854447,-0.11161 -0.149317,1.25395 c -0.211164,1.77333 -0.23827,1.82312 -1.084544,1.99238 -0.418589,0.0837 -1.351557,0.55482 -2.073261,1.0469 -0.721704,0.49208 -1.482681,0.99671 -1.691061,1.1214 -0.20838,0.12469 0.0486,-0.53785 0.571071,-1.4723 z m 8.274468,-0.77298 c 0.263389,-0.29104 0.53842,-0.52916 0.61118,-0.52916 0.07276,0 -0.08321,0.23812 -0.346597,0.52916 -0.263389,0.29104 -0.538421,0.52917 -0.611181,0.52917 -0.07276,0 0.08321,-0.23813 0.346598,-0.52917 z m -2.871755,-3.21157 c -0.269778,-0.15679 -1.239138,-0.27384 -2.154133,-0.26011 -1.606697,0.0241 -1.688159,-0.007 -2.380485,-0.91489 -0.394272,-0.51692 -0.675068,-0.97719 -0.623992,-1.02284 0.05108,-0.0456 0.888599,0.0337 1.861162,0.17632 1.744164,0.25576 1.782078,0.24827 2.778125,-0.54915 0.555405,-0.44465 1.452018,-0.99222 1.992472,-1.21683 1.340812,-0.55724 1.669617,-1.29183 2.581378,-5.76707 0.170474,-0.83675 0.394289,-1.52136 0.497366,-1.52136 0.203432,0 0.833403,3.65165 0.833403,4.83085 0,0.4952 -0.137359,0.7254 -0.432838,0.7254 -0.367498,0 -0.40324,0.18972 -0.236767,1.25677 0.107839,0.69123 0.190954,1.46513 0.184699,1.7198 -0.0063,0.25466 0.10029,0.46302 0.236766,0.46302 0.136477,0 0.24814,0.29765 0.24814,0.66145 0,0.58916 -0.109563,0.66146 -1.002389,0.66146 -0.551314,0 -1.469458,0.23813 -2.040319,0.52917 -1.167369,0.59516 -1.632882,0.64047 -2.342588,0.22801 z"
         id="path202"
         inkscape:connector-curvature="0" />
      <path
         style="fill:#aaaaaa;fill-opacity:1;stroke-width:0.26458332"
         d="m 74.617811,147.9765 c 0.184076,-0.2218 0.38917,-0.34878 0.455766,-0.28219 0.183488,0.18349 -0.189321,0.68546 -0.509085,0.68546 -0.175443,0 -0.155371,-0.15181 0.05332,-0.40327 z m 0.0073,-1.8696 c 0.575158,-1.09208 1.04574,-2.26095 1.04574,-2.59748 0,-0.54988 0.153243,-0.62769 1.512509,-0.76797 0.83188,-0.0859 1.536816,-0.1318 1.566525,-0.10209 0.02971,0.0297 -0.02584,0.69 -0.123446,1.46732 -0.165719,1.31978 -0.238742,1.43442 -1.103504,1.73248 -0.509323,0.17555 -1.604984,0.75437 -2.434802,1.28626 l -1.508761,0.96708 z m -10.046222,-0.1545 c 0.413858,-0.78316 1.953935,-2.81452 5.76013,-7.59761 5.168613,-6.49518 5.262071,-6.70805 4.300844,-9.79648 -0.276003,-0.8868 -0.396906,-1.6772 -0.268676,-1.75645 0.128231,-0.0793 0.977357,0.21898 1.886946,0.66274 2.138035,1.04308 3.394835,1.04598 5.672832,0.0131 0.962818,-0.43657 1.853173,-0.79375 1.978567,-0.79375 0.403894,0 0.244691,0.71271 -0.464568,2.07978 -1.072559,2.06731 -1.102298,3.29561 -0.135505,5.59665 0.449887,1.07076 0.760995,2.00382 0.691351,2.07347 -0.06964,0.0696 -0.947615,-0.0715 -1.951045,-0.31372 -1.003431,-0.24219 -2.116347,-0.44035 -2.473147,-0.44035 -0.796366,0 -2.933091,1.368 -6.419308,4.10984 -1.455208,1.14449 -3.836458,3.0172 -5.291667,4.16158 -1.455208,1.14437 -2.863204,2.20125 -3.128881,2.34861 -0.439166,0.2436 -0.453508,0.21204 -0.157873,-0.3474 z m 9.504462,-0.35076 c 0,-0.21828 0.115326,-0.39687 0.25628,-0.39687 0.140954,0 0.187747,0.17859 0.103984,0.39687 -0.08376,0.21828 -0.199088,0.39688 -0.256279,0.39688 -0.05719,0 -0.103985,-0.1786 -0.103985,-0.39688 z m -2.344117,-3.08165 c -0.488901,-0.14069 -0.839394,-0.30532 -0.778873,-0.36584 0.06052,-0.0605 0.5678,0.0164 1.12729,0.17084 0.559489,0.15448 1.523695,0.24055 2.14268,0.19126 0.618986,-0.0493 1.070235,-3.1e-4 1.002776,0.10883 -0.169094,0.27358 -2.412508,0.2061 -3.493873,-0.10509 z m 4.302663,-0.41579 c 0.276836,-0.0708 0.901914,-0.35263 1.389063,-0.62624 0.487148,-0.27362 0.885725,-0.43824 0.885725,-0.36582 0,0.28356 -1.749476,1.17857 -2.248959,1.15053 -0.498522,-0.028 -0.500018,-0.0372 -0.02583,-0.15847 z m 2.705219,-1.95637 c 0.546795,-0.61373 1.012007,-1.79504 1.238582,-3.14514 0.08337,-0.4968 0.119976,-0.42843 0.147038,0.27466 0.0406,1.05471 -0.94695,3.21026 -1.551468,3.38643 -0.271986,0.0793 -0.219797,-0.0831 0.165848,-0.51595 z m -10.707631,-0.68626 c -0.171433,-0.32032 -0.365097,-1.33204 -0.430364,-2.24825 -0.115023,-1.6147 -0.11194,-1.62465 0.100403,-0.32417 0.120488,0.73792 0.361455,1.60772 0.535482,1.9329 0.174028,0.32517 0.269111,0.73313 0.211295,0.90658 -0.06067,0.182 -0.236924,0.0691 -0.416816,-0.26706 z M 64.02874,135.5483 c 0.582321,-1.10569 1.058765,-2.28759 1.058765,-2.62646 0,-0.5584 0.142549,-0.62848 1.521354,-0.74793 0.836744,-0.0725 1.532069,-0.117 1.545167,-0.0989 0.0131,0.0181 -0.04644,0.66963 -0.132292,1.44786 -0.149364,1.35387 -0.199485,1.42982 -1.160813,1.75906 -0.55259,0.18926 -1.502832,0.68362 -2.11165,1.09858 -0.608818,0.41496 -1.258221,0.8498 -1.443118,0.9663 -0.184897,0.11651 0.140267,-0.69282 0.722587,-1.7985 z m 7.011889,-4.78079 c 0.837034,-0.40316 1.760211,-0.62911 2.513542,-0.61522 1.147683,0.0212 1.128598,0.0334 -0.529167,0.33803 -0.945885,0.17383 -1.979855,0.46007 -2.29771,0.63609 -0.317855,0.17601 -0.675042,0.31064 -0.79375,0.29916 -0.118707,-0.0115 0.379481,-0.3076 1.107085,-0.65806 z"
         id="path200"
         inkscape:connector-curvature="0" />
      <path
         style="fill:#a0a0a0;fill-opacity:1;stroke-width:0.26458332"
         d="m 74.620495,146.11564 c 0.577688,-1.09689 1.050342,-2.28634 1.050342,-2.64323 0,-0.5728 0.116351,-0.64931 0.992188,-0.6525 0.545703,-0.002 1.232268,-0.0681 1.5257,-0.14699 0.499879,-0.13434 0.524899,-0.0491 0.396875,1.35249 -0.133021,1.45628 -0.163421,1.50505 -1.148445,1.84235 -0.556493,0.19056 -1.654226,0.77302 -2.439404,1.29435 l -1.427598,0.94787 z M 64.58229,145.95376 c 0.180724,-0.33768 1.052939,-1.5499 1.938256,-2.69381 0.885317,-1.14392 1.843628,-2.39469 2.129581,-2.77949 0.285953,-0.38481 1.308466,-1.65215 2.27225,-2.81632 0.963785,-1.16416 2.307401,-2.92786 2.985815,-3.91932 1.420202,-2.07555 1.535741,-2.9245 0.720494,-5.29406 -0.282141,-0.82006 -0.412279,-1.55325 -0.289194,-1.62932 0.123084,-0.0761 0.979005,0.21896 1.902047,0.65563 2.186428,1.03435 3.403484,1.02646 5.782963,-0.0375 1.023222,-0.45752 1.934387,-0.75787 2.024808,-0.66745 0.09042,0.0904 -0.209934,1.00159 -0.667452,2.02481 -1.065713,2.38342 -1.072272,3.59562 -0.03136,5.79592 0.440041,0.93016 0.733777,1.75751 0.652745,1.83854 -0.08103,0.081 -0.709046,-0.01 -1.395593,-0.20184 -2.408949,-0.67382 -3.393487,-0.66087 -4.624982,0.0608 -1.32713,0.77775 -5.432651,3.86117 -9.720159,7.30025 -1.673489,1.34234 -3.260079,2.56132 -3.525756,2.70885 -0.439598,0.24411 -0.453491,0.21301 -0.154458,-0.34574 z m -0.546499,-10.41885 c 0.578443,-1.09832 1.051714,-2.28895 1.051714,-2.64584 0,-0.57279 0.11635,-0.64931 0.992187,-0.6525 0.545703,-0.002 1.232268,-0.0681 1.5257,-0.14699 0.49988,-0.13433 0.5249,-0.0491 0.396875,1.3525 -0.131491,1.43953 -0.17269,1.50822 -1.093825,1.82357 -1.015085,0.34752 -2.778193,1.35757 -3.36119,1.92557 -0.650898,0.63415 -0.565786,0.34559 0.488539,-1.65631 z"
         id="path198"
         inkscape:connector-curvature="0" />
      <path
         style="fill:#969696;fill-opacity:1;stroke-width:0.26458332"
         d="m 74.018815,147.27101 c 1.196232,-2.10421 1.622019,-3.03986 1.636405,-3.5959 0.01757,-0.67929 0.186971,-0.76306 1.867701,-0.92356 l 1.190625,-0.1137 -0.08906,1.38855 c -0.08719,1.35947 -0.112181,1.39739 -1.192777,1.81007 -0.607047,0.23184 -1.7271,0.83206 -2.489008,1.33384 l -1.385288,0.91232 z m -9.317007,-1.46987 c 0.28925,-0.45684 1.893346,-2.57655 3.564657,-4.71046 7.536301,-9.62227 7.345387,-9.25573 6.482121,-12.4449 -0.256134,-0.94623 -0.409313,-1.77681 -0.340399,-1.84572 0.06891,-0.0689 0.922823,0.24791 1.897576,0.70405 2.211075,1.03469 3.193551,1.03002 5.675533,-0.0269 1.069658,-0.45552 2.009539,-0.76351 2.088625,-0.68443 0.07908,0.0791 -0.230545,0.98098 -0.688063,2.0042 -1.065713,2.38342 -1.072272,3.59562 -0.03136,5.79592 0.440041,0.93016 0.740846,1.75043 0.668459,1.82282 -0.07239,0.0724 -0.827278,-0.0636 -1.677535,-0.30215 -3.490069,-0.97926 -3.031448,-1.22528 -14.505052,7.78092 -3.64186,2.85868 -3.797109,2.95312 -3.134557,1.90669 z m -1.283074,-8.99601 c 0.09206,-0.25515 0.369967,-0.76156 0.617574,-1.12536 0.383225,-0.56306 0.878029,-1.83169 1.212547,-3.10885 0.04764,-0.18191 0.477315,-0.33236 0.954825,-0.33435 0.47751,-0.002 1.106325,-0.0678 1.397366,-0.14619 0.489169,-0.1318 0.522435,-0.0336 0.440111,1.29934 l -0.08906,1.44191 -1.23386,0.46028 c -0.678623,0.25315 -1.412454,0.60026 -1.630735,0.77134 -0.218282,0.17108 -0.720712,0.51237 -1.116513,0.75842 -0.680707,0.42316 -0.710583,0.42226 -0.552258,-0.0165 z"
         id="path196"
         inkscape:connector-curvature="0" />
      <path
         style="fill:#8c8c8c;fill-opacity:1;stroke-width:0.26458332"
         d="m 74.712195,146.20667 c 0.527253,-0.94282 0.958642,-2.02792 0.958642,-2.41135 0,-0.74019 0.159462,-0.81555 2.248959,-1.06271 0.582083,-0.0689 0.93927,-0.0767 0.79375,-0.0173 -0.145521,0.0593 -0.224323,0.68849 -0.175115,1.39814 l 0.08947,1.29029 -1.204304,0.41034 c -0.662368,0.22569 -1.759096,0.79206 -2.437174,1.25859 l -1.232869,0.84823 0.958643,-1.71421 z m -10.153857,-0.0768 c 0,-0.30508 3.754023,-5.15846 3.990001,-5.15846 0.133832,0 0.213566,-0.0938 0.177186,-0.20851 -0.03638,-0.11468 0.588698,-1.02563 1.389063,-2.02433 3.168735,-3.95398 4.588522,-5.87201 4.90907,-6.6318 0.350429,-0.83062 0.239841,-1.90784 -0.414287,-4.03551 -0.190428,-0.6194 -0.285059,-1.18736 -0.210291,-1.26212 0.07477,-0.0748 1.047605,0.297 2.161858,0.82616 1.937213,0.91997 2.08082,0.94845 3.279887,0.65025 0.689684,-0.17152 1.890152,-0.6108 2.667707,-0.97617 0.777554,-0.36538 1.48049,-0.59757 1.562077,-0.51598 0.08159,0.0816 -0.247015,1.00608 -0.730229,2.05443 -1.113329,2.41539 -1.121585,3.5275 -0.04286,5.77358 0.454282,0.94588 0.718482,1.75667 0.587111,1.80174 -0.131371,0.0451 -0.864202,-0.10375 -1.628514,-0.33073 -2.278468,-0.67663 -3.199214,-0.55276 -5.202702,0.69993 -0.978699,0.61193 -1.838984,1.18488 -1.911744,1.27321 -0.07276,0.0883 -1.561042,1.28299 -3.307292,2.6548 -1.74625,1.3718 -3.889375,3.06974 -4.762499,3.7732 -1.659633,1.33714 -2.513542,1.89303 -2.513542,1.63631 z m -0.429476,-10.50656 c 0.527254,-0.94282 0.958643,-2.03393 0.958643,-2.4247 0,-0.39076 0.148828,-0.75688 0.330729,-0.8136 0.434413,-0.13545 3.055819,-0.37053 2.711979,-0.2432 -0.145521,0.0539 -0.224323,0.67861 -0.175115,1.38826 l 0.08947,1.29028 -1.204304,0.41035 c -0.662367,0.22569 -1.759095,0.79205 -2.437173,1.25858 l -1.232869,0.84824 z"
         id="path194"
         inkscape:connector-curvature="0" />
      <path
         style="fill:#828282;fill-opacity:1;stroke-width:0.26458332"
         d="m 74.347921,146.79227 c 0.155761,-0.29104 0.369085,-0.52917 0.474055,-0.52917 0.233984,0 0.848861,-1.90985 0.848861,-2.63662 0,-0.59318 0.806844,-0.89595 2.018552,-0.75747 0.699303,0.0799 0.765824,0.1829 0.838351,1.29791 0.07807,1.20027 0.06954,1.21387 -0.954102,1.52056 -0.568083,0.1702 -1.472023,0.60747 -2.008756,0.97171 -1.19553,0.81131 -1.603833,0.85595 -1.216961,0.13308 z m -8.431204,-2.5252 c 0.78086,-1.12409 1.740886,-2.39086 2.133392,-2.81505 0.392505,-0.42418 0.690161,-0.85467 0.661458,-0.95664 -0.0287,-0.10197 0.214553,-0.30244 0.540569,-0.44548 0.326015,-0.14304 0.565578,-0.38117 0.532362,-0.52917 -0.07295,-0.32502 2.708902,-3.84096 3.039015,-3.84096 0.127997,0 0.165421,-0.10889 0.08317,-0.24199 -0.08226,-0.13309 -0.04932,-0.28192 0.07319,-0.33073 0.365102,-0.14545 2.156854,-2.88734 2.32525,-3.55828 0.08572,-0.34155 -0.101829,-1.46939 -0.416785,-2.50632 -0.314956,-1.03692 -0.504478,-1.95348 -0.421161,-2.0368 0.08332,-0.0833 0.882753,0.19717 1.776525,0.6233 1.350534,0.6439 1.916261,0.76516 3.349055,0.71784 0.948208,-0.0313 1.793134,-0.16416 1.877611,-0.29519 0.227043,-0.35217 2.430918,-1.42749 2.593153,-1.26526 0.07663,0.0766 -0.09499,0.59095 -0.381381,1.14294 -0.933322,1.7989 -1.452007,3.72058 -1.252713,4.6412 0.102435,0.47318 0.538309,1.56067 0.968609,2.41663 l 0.782365,1.5563 -0.616761,-0.13657 c -0.339219,-0.0751 -1.345454,-0.33189 -2.236077,-0.57062 -1.256728,-0.33685 -1.789925,-0.36922 -2.38125,-0.14454 -1.090733,0.41443 -3.355252,1.95026 -5.69394,3.86172 -1.111874,0.90876 -2.09414,1.57974 -2.182813,1.49106 -0.08867,-0.0887 -0.161222,-0.0372 -0.161222,0.1144 0,0.24706 -2.607029,2.37935 -5.380255,4.40052 l -1.031111,0.7515 z m -1.604639,-8.91803 c 0.421213,-0.76398 0.767997,-1.71422 0.770634,-2.11163 0.0051,-0.76842 0.152474,-0.83958 2.253751,-1.08813 0.582083,-0.0689 0.939271,-0.0767 0.79375,-0.0173 -0.145521,0.0593 -0.223668,0.6982 -0.173661,1.41971 0.08685,1.25311 0.05724,1.31976 -0.661459,1.48873 -0.413809,0.0973 -1.362186,0.51908 -2.107504,0.9373 -0.745317,0.41823 -1.419524,0.76041 -1.498237,0.76041 -0.07871,0 0.201514,-0.62508 0.622726,-1.38906 z"
         id="path192"
         inkscape:connector-curvature="0" />
    </g>
  </g>
</svg>
