<?xml version="1.0" encoding="UTF-8" standalone="no"?>
<!-- Created with Inkscape (http://www.inkscape.org/) -->

<svg
   xmlns:dc="http://purl.org/dc/elements/1.1/"
   xmlns:cc="http://creativecommons.org/ns#"
   xmlns:rdf="http://www.w3.org/1999/02/22-rdf-syntax-ns#"
   xmlns:svg="http://www.w3.org/2000/svg"
   xmlns="http://www.w3.org/2000/svg"
   xmlns:sodipodi="http://sodipodi.sourceforge.net/DTD/sodipodi-0.dtd"
   xmlns:inkscape="http://www.inkscape.org/namespaces/inkscape"
   width="50"
   height="50"
   viewBox="0 0 13.229166 13.229167"
   version="1.1"
   id="svg8"
   inkscape:version="0.92.4 (5da689c313, 2019-01-14)"
   sodipodi:docname="bullets_3.svg">
  <defs
     id="defs2" />
  <sodipodi:namedview
     id="base"
     pagecolor="#ffffff"
     bordercolor="#666666"
     borderopacity="1.0"
     inkscape:pageopacity="0.0"
     inkscape:pageshadow="2"
     inkscape:zoom="7.919596"
     inkscape:cx="43.353459"
     inkscape:cy="35.340169"
     inkscape:document-units="mm"
     inkscape:current-layer="layer1"
     showgrid="false"
     inkscape:window-width="1280"
     inkscape:window-height="961"
     inkscape:window-x="1358"
     inkscape:window-y="-8"
     inkscape:window-maximized="1"
     units="px" />
  <metadata
     id="metadata5">
    <rdf:RDF>
      <cc:Work
         rdf:about="">
        <dc:format>image/svg+xml</dc:format>
        <dc:type
           rdf:resource="http://purl.org/dc/dcmitype/StillImage" />
        <dc:title></dc:title>
      </cc:Work>
    </rdf:RDF>
  </metadata>
  <g
     inkscape:label="Camada 1"
     inkscape:groupmode="layer"
     id="layer1"
     transform="translate(0,-283.77082)">
    <path
       style="fill:#000000;stroke-width:0.57596487"
       d="m 4.8807662,295.59565 c -1.3398666,-1.84264 -1.2597576,-2.66909 0.1007893,-1.03881 l 1.070302,1.2826 2.57853,-2.57851 2.5785085,-2.57853 -2.5708675,-2.57087 -2.570889,-2.57089 -1.4362785,1.70693 c -0.7899662,0.93882 -1.7302021,1.70693 -2.0894301,1.70693 -0.3592061,0 0.1822045,-0.76293 1.2031371,-1.69541 1.0209327,-0.93249 1.8562645,-2.09881 1.8562645,-2.59185 0,-0.49302 0.259177,-0.89642 0.575956,-0.89642 0.316779,0 0.575958,0.34841 0.575958,0.77423 0,0.98934 4.5917245,5.56139 5.5853375,5.56139 0.412649,0 0.750282,0.25918 0.750282,0.57596 0,0.31678 -0.353307,0.57598 -0.785133,0.57598 -0.431827,0 -1.997305,1.29591 -3.4788635,2.87981 -1.48156,1.58391 -2.748153,2.87169 -2.814656,2.86174 -0.06661,-0.0109 -0.574475,-0.64187 -1.1288384,-1.40428 z m -0.5354242,-3.24995 -1.5433609,-1.65577 1.6873394,-1.68736 1.687359,-1.68734 1.683595,1.68359 1.683574,1.68358 -1.727895,1.72789 c -0.950337,0.95036 -1.772738,1.69714 -1.827574,1.65954 -0.05486,-0.0377 -0.794187,-0.81343 -1.6430375,-1.72413 z m -1.6244495,0.86997 c 0,-0.29621 -0.7127524,-0.98046 -1.5839161,-1.52059 -0.87114165,-0.5401 -1.28862275,-0.98891 -0.92774045,-0.99736 1.01013525,-0.0235 3.43112505,2.13365 2.94363565,2.62294 -0.2375841,0.23846 -0.4319791,0.19113 -0.4319791,-0.10492 z"
       id="path33"
       inkscape:connector-curvature="0" />
  </g>
</svg>
