<?xml version="1.0" encoding="UTF-8" standalone="no"?>
<!-- Created with Inkscape (http://www.inkscape.org/) -->

<svg
   xmlns:dc="http://purl.org/dc/elements/1.1/"
   xmlns:cc="http://creativecommons.org/ns#"
   xmlns:rdf="http://www.w3.org/1999/02/22-rdf-syntax-ns#"
   xmlns:svg="http://www.w3.org/2000/svg"
   xmlns="http://www.w3.org/2000/svg"
   xmlns:sodipodi="http://sodipodi.sourceforge.net/DTD/sodipodi-0.dtd"
   xmlns:inkscape="http://www.inkscape.org/namespaces/inkscape"
   width="50"
   height="50"
   viewBox="0 0 13.229166 13.229167"
   version="1.1"
   id="svg8"
   inkscape:version="0.92.4 (5da689c313, 2019-01-14)"
   sodipodi:docname="bullets.svg">
  <defs
     id="defs2" />
  <sodipodi:namedview
     id="base"
     pagecolor="#ffffff"
     bordercolor="#666666"
     borderopacity="1.0"
     inkscape:pageopacity="0.0"
     inkscape:pageshadow="2"
     inkscape:zoom="5.6"
     inkscape:cx="-16.675853"
     inkscape:cy="25.637277"
     inkscape:document-units="mm"
     inkscape:current-layer="layer1"
     showgrid="false"
     units="px"
     inkscape:window-width="1366"
     inkscape:window-height="705"
     inkscape:window-x="-8"
     inkscape:window-y="252"
     inkscape:window-maximized="1" />
  <metadata
     id="metadata5">
    <rdf:RDF>
      <cc:Work
         rdf:about="">
        <dc:format>image/svg+xml</dc:format>
        <dc:type
           rdf:resource="http://purl.org/dc/dcmitype/StillImage" />
        <dc:title></dc:title>
      </cc:Work>
    </rdf:RDF>
  </metadata>
  <g
     inkscape:label="Camada 1"
     inkscape:groupmode="layer"
     id="layer1"
     transform="translate(0,-283.77082)">
    <path
       style="fill:#000000;stroke-width:0.22808905"
       d="m 3.0777436,293.83802 c -1.9881464,-1.99196 -3.12640503,-3.29997 -3.07614643,-3.53491 0.1149397,-0.53741 6.14583593,-6.53229 6.57153413,-6.53229 0.4564137,0 6.6233537,6.16438 6.6233537,6.6206 0,0.44628 -6.1734916,6.60857 -6.6205865,6.60857 -0.1882327,0 -1.762405,-1.42288 -3.4981549,-3.16197 z m 6.1803099,-0.76849 c 1.2879995,-1.28361 2.3418105,-2.48787 2.3418105,-2.67615 0,-0.45205 -4.5666293,-5.02593 -5.0179568,-5.02593 -0.4465086,0 -5.0179652,4.57146 -5.0179652,5.01796 0,0.44168 4.5690169,5.01796 5.009991,5.01796 0.1882759,0 1.3961293,-1.05022 2.6841205,-2.33384 z m -3.9648531,-1.14452 c -1.3999224,-1.46312 -1.4108534,-1.67258 -0.1538621,-2.94876 0.5958103,-0.6049 1.2449569,-1.09982 1.4425689,-1.09982 0.4551465,0 2.5089739,2.06726 2.5089739,2.52539 0,0.4436 -2.0767325,2.49257 -2.5263446,2.49257 -0.1891035,0 -0.7612068,-0.43622 -1.2713361,-0.96938 z"
       id="path21"
       inkscape:connector-curvature="0"
       sodipodi:nodetypes="ccsssccsssscscssss" />
  </g>
</svg>
