<?xml version="1.0" encoding="UTF-8" standalone="no"?>
<!-- Created with Inkscape (http://www.inkscape.org/) -->

<svg
   xmlns:dc="http://purl.org/dc/elements/1.1/"
   xmlns:cc="http://creativecommons.org/ns#"
   xmlns:rdf="http://www.w3.org/1999/02/22-rdf-syntax-ns#"
   xmlns:svg="http://www.w3.org/2000/svg"
   xmlns="http://www.w3.org/2000/svg"
   xmlns:sodipodi="http://sodipodi.sourceforge.net/DTD/sodipodi-0.dtd"
   xmlns:inkscape="http://www.inkscape.org/namespaces/inkscape"
   width="400"
   height="400"
   viewBox="0 0 105.83333 105.83334"
   version="1.1"
   id="svg8"
   inkscape:version="0.92.4 (5da689c313, 2019-01-14)"
   sodipodi:docname="geo.svg">
  <defs
     id="defs2" />
  <sodipodi:namedview
     id="base"
     pagecolor="#ffffff"
     bordercolor="#666666"
     borderopacity="1.0"
     inkscape:pageopacity="0.0"
     inkscape:pageshadow="2"
     inkscape:zoom="0.24748737"
     inkscape:cx="460.99176"
     inkscape:cy="358.03918"
     inkscape:document-units="mm"
     inkscape:current-layer="layer1"
     showgrid="false"
     units="px"
     showguides="true"
     inkscape:guide-bbox="true"
     inkscape:window-width="1366"
     inkscape:window-height="705"
     inkscape:window-x="-8"
     inkscape:window-y="-8"
     inkscape:window-maximized="1"
     inkscape:snap-bbox="true"
     inkscape:bbox-paths="true"
     inkscape:bbox-nodes="true"
     inkscape:snap-bbox-edge-midpoints="true">
    <sodipodi:guide
       position="0,0"
       orientation="1,0"
       id="guide65"
       inkscape:locked="false"
       inkscape:label=""
       inkscape:color="rgb(0,0,255)" />
    <sodipodi:guide
       position="105.83334,105.83334"
       orientation="1,0"
       id="guide67"
       inkscape:locked="false"
       inkscape:label=""
       inkscape:color="rgb(0,0,255)" />
    <sodipodi:guide
       position="0,0"
       orientation="0,1"
       id="guide69"
       inkscape:locked="false"
       inkscape:label=""
       inkscape:color="rgb(0,0,255)" />
    <sodipodi:guide
       position="0,105.83334"
       orientation="0,1"
       id="guide71"
       inkscape:locked="false"
       inkscape:label=""
       inkscape:color="rgb(0,0,255)" />
  </sodipodi:namedview>
  <metadata
     id="metadata5">
    <rdf:RDF>
      <cc:Work
         rdf:about="">
        <dc:format>image/svg+xml</dc:format>
        <dc:type
           rdf:resource="http://purl.org/dc/dcmitype/StillImage" />
        <dc:title />
      </cc:Work>
    </rdf:RDF>
  </metadata>
  <g
     inkscape:label="Camada 1"
     inkscape:groupmode="layer"
     id="layer1"
     transform="translate(0,-191.16665)">
    <path
       inkscape:connector-curvature="0"
       id="path29"
       d="m 50.580498,295.00658 c -7.11223,-5.43759 -14.10749,-11.65552 -22.13583,-19.67597 -8.4439,-8.43551 -13.61063,-14.39922 -18.7467504,-21.63829 -2.55922,-3.60716 -5.81076,-9.00287 -5.81076,-9.6427 0,-1.33167 9.3640904,-13.82925 10.3618804,-13.82925 0.19884,0 0.71249,1.03383 1.20826,2.43203 5.20946,14.69153 15.22145,31.53558 28.79442,48.44314 5.00465,6.23417 9.00128,10.91121 9.32374,10.91121 0.3168,0 0.78951,-0.50189 4.17361,-4.43189 10.21063,-11.85772 16.43646,-21.92381 18.27683,-29.55061 0.36747,-1.52286 0.81047,-1.85602 -12.85015,9.66456 -4.91661,4.14641 -9.08435,7.5989 -9.26183,7.67219 -1.2024,0.49692 -10.5483,-10.22982 -15.70092,-18.02083 -3.60838,-5.45587 -5.52625,-9.04833 -5.17805,-9.69896 0.82905,-1.54916 12.65189,-11.81427 16.67297,-14.47623 l 0.99272,-0.6572 0.67513,0.63101 c 0.96232,0.89947 2.99218,3.64361 2.99218,4.04511 0,0.18612 -2.60294,2.91713 -5.78432,6.0689 -4.05168,4.01406 -5.78423,5.90394 -5.78423,6.30958 0,0.91856 1.98724,4.64458 3.7327,6.99868 0.87954,1.18614 2.71632,3.25768 4.08199,4.60343 2.66902,2.63028 3.07754,2.80831 4.62137,2.01375 4.50164,-2.3169 15.93315,-11.80416 21.90638,-18.18055 1.77925,-1.89932 2.19919,-2.22511 2.52245,-1.95683 0.57834,0.47993 3.15942,5.57566 4.49309,8.87048 1.45162,3.58609 2.37657,6.41046 3.0842,9.41778 l 0.54575,2.31893 -0.65029,1.09904 c -2.32878,3.93619 -14.04171,16.22823 -21.70992,22.78331 -4.9818,4.25868 -11.55484,9.47244 -11.93841,9.46958 -0.16714,-9.9e-4 -1.47587,-0.89828 -2.90821,-1.9934 z m 40.85764,-39.61155 c -4.28133,-12.07399 -12.70755,-27.15293 -22.66269,-40.55553 -4.88134,-6.57165 -14.92215,-18.79882 -15.43749,-18.79882 -0.52766,0 -7.81796,8.50509 -11.49372,13.40896 -5.45023,7.27118 -9.67671,15.19414 -10.9747,20.57354 -0.36758,1.52311 -0.80044,1.84855 12.85014,-9.66128 4.91661,-4.14559 9.08436,-7.59848 9.26174,-7.67309 1.19584,-0.50304 10.47546,10.14111 15.68452,17.99089 3.60232,5.42854 5.54652,9.06889 5.19455,9.72653 -0.82906,1.54915 -12.6519,11.81426 -16.67297,14.47622 l -0.99272,0.6572 -0.67513,-0.63101 c -0.96232,-0.89947 -2.99218,-3.64361 -2.99218,-4.04511 0,-0.18612 2.60294,-2.91712 5.78422,-6.06889 4.05178,-4.01407 5.78432,-5.90395 5.78432,-6.30959 0,-0.91619 -1.98425,-4.63972 -3.73746,-7.01349 -0.88212,-1.19428 -2.72149,-3.26582 -4.08755,-4.60343 -2.66714,-2.61155 -3.07556,-2.78867 -4.61115,-1.99963 -4.4752,2.29965 -15.93414,11.8149 -21.90359,18.18825 -1.78422,1.90498 -2.19562,2.22333 -2.52245,1.95207 -0.58063,-0.48186 -3.15942,-5.57125 -4.49577,-8.87272 -1.44874,-3.57892 -2.37647,-6.41004 -3.07893,-9.39531 -0.6334,-2.69197 -0.64542,-2.65247 1.74268,-5.73455 4.18434,-5.40015 12.79588,-14.20276 19.82583,-20.26553 4.07364,-3.51318 10.88785,-9.00104 11.74821,-9.46149 0.52508,-0.28105 0.83045,-0.12694 3.02567,1.52693 6.8164,5.13538 14.32939,11.79884 22.44924,19.91067 8.44381,8.43552 13.61064,14.39922 18.74676,21.63829 2.50238,3.52708 5.810762,8.99782 5.810762,9.60887 0,0.5349 -2.00324,3.78986 -4.082092,6.63276 -2.04557,2.79736 -5.8981,7.23032 -6.28357,7.23032 -0.19407,0 -0.71537,-1.05245 -1.20448,-2.43203 z"
       style="fill:#e3b342;fill-opacity:1;stroke-width:0.26292077"
       sodipodi:nodetypes="cccssccssccccccccscsccccccccccccccscccccccccscscccccccccccccscsc" />
  </g>
</svg>
