<?xml version="1.0" encoding="UTF-8" standalone="no"?>
<!-- Created with Inkscape (http://www.inkscape.org/) -->

<svg
   xmlns:dc="http://purl.org/dc/elements/1.1/"
   xmlns:cc="http://creativecommons.org/ns#"
   xmlns:rdf="http://www.w3.org/1999/02/22-rdf-syntax-ns#"
   xmlns:svg="http://www.w3.org/2000/svg"
   xmlns="http://www.w3.org/2000/svg"
   xmlns:sodipodi="http://sodipodi.sourceforge.net/DTD/sodipodi-0.dtd"
   xmlns:inkscape="http://www.inkscape.org/namespaces/inkscape"
   width="908"
   height="90"
   viewBox="0 0 240.24166 23.812501"
   version="1.1"
   id="svg8"
   inkscape:version="0.92.4 (5da689c313, 2019-01-14)"
   sodipodi:docname="borda.svg">
  <defs
     id="defs2" />
  <sodipodi:namedview
     id="base"
     pagecolor="#ffffff"
     bordercolor="#666666"
     borderopacity="1.0"
     inkscape:pageopacity="0.0"
     inkscape:pageshadow="2"
     inkscape:zoom="0.49497475"
     inkscape:cx="569.99517"
     inkscape:cy="216.27139"
     inkscape:document-units="px"
     inkscape:current-layer="layer1"
     showgrid="false"
     units="px"
     inkscape:window-width="1366"
     inkscape:window-height="705"
     inkscape:window-x="-8"
     inkscape:window-y="252"
     inkscape:window-maximized="1" />
  <metadata
     id="metadata5">
    <rdf:RDF>
      <cc:Work
         rdf:about="">
        <dc:format>image/svg+xml</dc:format>
        <dc:type
           rdf:resource="http://purl.org/dc/dcmitype/StillImage" />
        <dc:title></dc:title>
      </cc:Work>
    </rdf:RDF>
  </metadata>
  <g
     inkscape:label="Camada 1"
     inkscape:groupmode="layer"
     id="layer1"
     transform="translate(0,-273.18748)">
    <path
       style="fill:#000000;fill-opacity:0.23618092;stroke:none;stroke-width:0.09971007;stroke-linecap:butt;stroke-linejoin:miter;stroke-miterlimit:4;stroke-dasharray:none;stroke-opacity:1"
       d="m 0.7595016,273.18748 c 0,2.80305 0,5.03775 0,7.8408 0.4276665,0.55149 0.7800718,0.9352 1.0640161,1.19336 l -0.00798,-8.0093 H 238.50611 v 7.6955 c 0.34162,-0.2363 0.68324,-0.59521 1.02486,-1.2119 v -7.50846 z M 240.43757,280.968 c -0.83706,1.40846 -1.73569,2.139 -2.63817,2.82675 -0.90957,-0.60846 -1.41635,-1.50465 -2.03736,-2.31922 -2.23171,1.75905 -4.37561,2.60898 -6.71701,3.50227 2.3414,0.89328 4.4853,1.74321 6.71701,3.50225 0.62101,-0.81456 1.12779,-1.71074 2.03736,-2.3192 0.90248,0.68775 1.80111,1.41776 2.63817,2.82623 V 284.9778 Z M 0,280.96851 v 4.00929 4.0098 c 0.8370361,-1.40847 1.7356732,-2.139 2.638159,-2.82675 0.9095651,0.60846 1.4163218,1.50464 2.037346,2.3192 2.2317009,-1.75904 4.375607,-2.60897 6.716999,-3.50225 -2.341392,-0.89329 -4.4852981,-1.74322 -6.716999,-3.50227 -0.6210242,0.81457 -1.1277809,1.71076 -2.037346,2.31922 C 1.7356732,283.107 0.8370361,282.37698 0,280.96851 Z m 4.7662111,2.44082 c 1.227142,0.5539 2.2952762,1.05693 3.0988098,1.56847 -0.8035336,0.51153 -1.8716678,1.01457 -3.0988098,1.56847 -0.5616967,-0.54549 -0.7854859,-1.10061 -1.1753324,-1.56847 0.3898465,-0.46786 0.6136357,-1.02299 1.1753324,-1.56847 z m 230.9051489,0 c 0.56167,0.54548 0.78547,1.10061 1.17532,1.56847 -0.38985,0.46786 -0.61365,1.02298 -1.17532,1.56847 -1.22716,-0.5539 -2.2953,-1.05694 -3.09881,-1.56847 0.80351,-0.51154 1.87165,-1.01457 3.09881,-1.56847 z M 0.8388309,283.78237 c 0.2360038,0.34295 0.6017403,0.85248 1.0150785,1.19543 -0.4133382,0.34294 -0.7790747,0.85247 -1.0150785,1.19541 v -1.19541 z m 238.7598791,0 v 1.19543 1.19541 c -0.236,-0.34294 -0.60173,-0.85247 -1.01507,-1.19541 0.41334,-0.34295 0.77907,-0.85248 1.01507,-1.19543 z M 1.8235177,287.96583 c -0.2839443,0.25815 -0.6363496,0.64134 -1.0640161,1.19283 0,2.80305 0,5.03829 0,7.84132 H 239.53069 v -7.50846 c -0.34161,-0.61669 -0.68323,-0.97561 -1.02486,-1.2119 v 7.6955 H 1.8152617 Z"
       id="path893"
       inkscape:connector-curvature="0" />
  </g>
</svg>
