<?xml version="1.0" encoding="UTF-8" standalone="no"?>
<!-- Created with Inkscape (http://www.inkscape.org/) -->

<svg
   xmlns:dc="http://purl.org/dc/elements/1.1/"
   xmlns:cc="http://creativecommons.org/ns#"
   xmlns:rdf="http://www.w3.org/1999/02/22-rdf-syntax-ns#"
   xmlns:svg="http://www.w3.org/2000/svg"
   xmlns="http://www.w3.org/2000/svg"
   xmlns:sodipodi="http://sodipodi.sourceforge.net/DTD/sodipodi-0.dtd"
   xmlns:inkscape="http://www.inkscape.org/namespaces/inkscape"
   width="400"
   height="400"
   viewBox="0 0 105.83333 105.83334"
   version="1.1"
   id="svg8"
   inkscape:version="0.92.4 (5da689c313, 2019-01-14)"
   sodipodi:docname="cryo.svg">
  <defs
     id="defs2" />
  <sodipodi:namedview
     id="base"
     pagecolor="#ffffff"
     bordercolor="#666666"
     borderopacity="1.0"
     inkscape:pageopacity="0.0"
     inkscape:pageshadow="2"
     inkscape:zoom="0.043750001"
     inkscape:cx="-1868.9144"
     inkscape:cy="104.70252"
     inkscape:document-units="mm"
     inkscape:current-layer="layer1"
     showgrid="false"
     units="px"
     showguides="true"
     inkscape:guide-bbox="true"
     inkscape:window-width="1366"
     inkscape:window-height="705"
     inkscape:window-x="-8"
     inkscape:window-y="-8"
     inkscape:window-maximized="1"
     inkscape:snap-bbox="true"
     inkscape:bbox-paths="true"
     inkscape:bbox-nodes="true"
     inkscape:snap-bbox-edge-midpoints="true">
    <sodipodi:guide
       position="0,0"
       orientation="1,0"
       id="guide65"
       inkscape:locked="false"
       inkscape:label=""
       inkscape:color="rgb(0,0,255)" />
    <sodipodi:guide
       position="105.83334,105.83334"
       orientation="1,0"
       id="guide67"
       inkscape:locked="false"
       inkscape:label=""
       inkscape:color="rgb(0,0,255)" />
    <sodipodi:guide
       position="0,0"
       orientation="0,1"
       id="guide69"
       inkscape:locked="false"
       inkscape:label=""
       inkscape:color="rgb(0,0,255)" />
    <sodipodi:guide
       position="0,105.83334"
       orientation="0,1"
       id="guide71"
       inkscape:locked="false"
       inkscape:label=""
       inkscape:color="rgb(0,0,255)" />
  </sodipodi:namedview>
  <metadata
     id="metadata5">
    <rdf:RDF>
      <cc:Work
         rdf:about="">
        <dc:format>image/svg+xml</dc:format>
        <dc:type
           rdf:resource="http://purl.org/dc/dcmitype/StillImage" />
        <dc:title />
      </cc:Work>
    </rdf:RDF>
  </metadata>
  <g
     inkscape:label="Camada 1"
     inkscape:groupmode="layer"
     id="layer1"
     transform="translate(0,-191.16665)">
    <path
       inkscape:connector-curvature="0"
       id="path35"
       d="m 50.820131,291.83232 c -2.74258,-5.50718 -5.13232,-9.70818 -8.62358,-15.15968 -2.06867,-3.23019 -2.41541,-3.92608 -1.95629,-3.9262 0.1137,-3e-5 0.99374,0.27902 1.95569,0.62011 l 1.74898,0.62018 0.80954,-0.96462 c 0.44525,-0.53055 1.28651,-1.77079 1.86948,-2.75608 3.31762,-5.60731 4.89261,-9.87837 6.79593,-18.42933 0.0799,-0.35896 0.20726,-0.59067 0.283,-0.51493 0.0757,0.0757 0.44207,1.48564 0.81411,3.13311 1.56958,6.95095 5.06809,14.99204 8.0782,18.56723 l 0.81215,0.96462 1.74898,-0.62018 c 0.96196,-0.34109 1.842,-0.62014 1.95569,-0.62011 0.45914,1.2e-4 0.1124,0.69601 -1.95629,3.9262 -3.49126,5.4515 -5.881,9.6525 -8.62357,15.15968 -1.41541,2.84221 -2.70063,5.16765 -2.85601,5.16765 -0.15539,0 -1.44061,-2.32544 -2.85601,-5.16765 z m 7.64844,-14.8475 c 0.32183,-0.28432 0.18287,-0.7909 -0.87351,-3.18394 -1.38184,-3.1304 -2.71973,-7.17527 -3.22026,-9.73602 -0.41851,-2.14123 -0.58071,-2.6903 -0.74587,-2.52512 -0.0741,0.0741 -0.37293,1.23064 -0.66407,2.57014 -0.71177,3.2745 -2.00305,7.16062 -3.34365,10.06274 l -1.10442,2.39075 2.57969,2.47676 2.57966,2.47677 2.20486,-2.09697 c 1.21268,-1.15335 2.37708,-2.24914 2.58757,-2.43511 z M 7.7874725,270.65696 c 0,-0.12196 1.4767591,-2.46124 3.2816885,-5.19838 3.50655,-5.31767 5.96831,-9.52711 8.84504,-15.12447 0.9853,-1.91713 1.93527,-3.48772 2.11105,-3.49021 0.18181,-0.002 0.45911,0.8224 0.64313,1.91347 0.26503,1.57115 0.43149,1.95273 0.92064,2.11017 1.09813,0.35346 9.34693,0.17178 12.21793,-0.2691 3.06495,-0.47067 7.30195,-1.49023 9.85289,-2.37093 0.89647,-0.30951 1.68234,-0.51035 1.74636,-0.44632 0.0641,0.0641 -1.27501,1.45961 -2.97565,3.1013 -3.39108,3.27353 -5.5108,5.74881 -7.63048,8.91045 -1.5149,2.25956 -3.93231,6.87566 -3.93231,7.50882 0,0.21864 0.62012,0.92041 1.37804,1.55949 0.75792,0.6391 1.37803,1.25799 1.37803,1.37533 0,0.11735 -4.61986,0.20298 -10.26638,0.19031 -5.64651,-0.0127 -11.90969,0.0838 -13.91818,0.21439 -2.0084894,0.1306 -3.6517985,0.13766 -3.6517985,0.0156 z m 21.9601085,-7.90124 c 1.90326,-2.71171 4.61221,-5.77592 6.95959,-7.8723 1.07159,-0.95701 1.94835,-1.84832 1.94835,-1.98068 0,-0.13235 -1.08521,0.1277 -2.41156,0.5779 -2.80051,0.95055 -8.10243,2.05213 -11.1375,2.31403 l -2.11138,0.18219 -0.30132,1.73034 c -0.16572,0.9517 -0.55025,2.45386 -0.85449,3.33814 -0.30425,0.88429 -0.45875,1.69131 -0.34338,1.79338 0.11537,0.10208 1.01591,0.38335 2.00122,0.62507 0.98529,0.24171 2.28754,0.62213 2.89387,0.84537 0.60634,0.22323 1.29406,0.41461 1.5283,0.4253 0.23421,0.0107 1.05696,-0.87975 1.8283,-1.97874 z m 63.61606,7.73257 c -1.51585,-0.13851 -7.00388,-0.19756 -12.19564,-0.13124 -5.19176,0.0664 -9.43956,0.0183 -9.43956,-0.10662 0,-0.12496 0.62011,-0.75008 1.37804,-1.38918 0.75792,-0.63908 1.37803,-1.3466 1.37803,-1.57226 0,-0.64453 -2.34644,-5.13254 -3.89778,-7.4553 -2.14497,-3.21151 -4.07072,-5.46404 -7.56702,-8.85104 -1.75306,-1.69826 -3.13559,-3.13952 -3.07231,-3.2028 0.0633,-0.0633 0.84857,0.13815 1.74504,0.44766 2.55094,0.8807 6.78794,1.90026 9.85288,2.37093 2.87101,0.44088 11.11981,0.62256 12.21794,0.2691 0.48915,-0.15744 0.65562,-0.53902 0.92064,-2.11017 0.18416,-1.09182 0.46117,-1.91581 0.64313,-1.91291 0.17578,0.003 1.18776,1.69771 2.24885,3.76648 2.67199,5.20951 5.7732,10.48454 9.00328,15.31424 1.506301,2.25224 2.807545,4.27433 2.891665,4.49353 0.178857,0.4661 -1.551664,0.48582 -6.107185,0.0696 z m -12.2108,-6.25671 c 0.83493,-0.28726 2.22427,-0.68033 3.08741,-0.8735 0.86313,-0.19315 1.62402,-0.43966 1.69082,-0.5478 0.0669,-0.10812 -0.12435,-0.91123 -0.42484,-1.78465 -0.30052,-0.87344 -0.68199,-2.36673 -0.84772,-3.31843 l -0.30132,-1.73034 -2.11138,-0.18219 c -3.03507,-0.2619 -8.33699,-1.36348 -11.13749,-2.31403 -1.32636,-0.4502 -2.41157,-0.71025 -2.41157,-0.5779 0,0.13235 0.87677,1.02367 1.94836,1.98068 2.34737,2.09638 5.05632,5.16059 6.95959,7.8723 0.77134,1.09899 1.54364,1.99816 1.71626,1.99816 0.17258,0 0.99693,-0.23504 1.83188,-0.5223 z m -35.70478,-6.5746 c -0.0741,-0.26527 -0.21982,-1.5938 -0.32378,-2.95228 l -0.18899,-2.46996 3.65413,-3.52882 c 2.00975,-1.94085 3.58587,-3.59705 3.50247,-3.68046 -0.0834,-0.0834 -1.55942,0.28317 -3.28,0.81461 -5.11649,1.58033 -6.31051,1.83743 -6.96301,1.49934 -0.31629,-0.1639 -1.42986,-0.92634 -2.47455,-1.69433 l -1.89945,-1.39633 0.8866,-0.74017 c 0.48763,-0.40709 1.56617,-1.20819 2.39674,-1.78025 1.50051,-1.03342 1.51931,-1.03801 2.9421,-0.71614 0.78761,0.17816 2.94975,0.7782 4.80482,1.33343 1.85503,0.55521 3.44407,0.93821 3.53116,0.85112 0.0871,-0.0871 -1.47533,-1.75604 -3.47202,-3.70875 l -3.63041,-3.55038 0.20254,-2.7014 c 0.14301,-1.90755 0.31521,-2.74464 0.58602,-2.84855 0.51983,-0.19948 5.05145,1.86605 5.36074,2.44342 0.13584,0.25362 0.74348,2.47533 1.35026,4.93714 0.60677,2.46181 1.1627,4.53549 1.23537,4.60818 0.18753,0.18753 0.30094,-0.19886 1.23815,-4.21866 1.3478,-5.78104 1.28248,-5.66878 4.00574,-6.88223 1.2803,-0.57048 2.49824,-0.97186 2.70649,-0.89195 0.24322,0.0933 0.44232,0.81954 0.55668,2.03049 0.3703,3.92163 0.60903,3.41567 -3.45233,7.31703 -2.0054,1.92643 -3.5894,3.55421 -3.51998,3.6173 0.0695,0.0631 1.92458,-0.42901 4.12254,-1.09352 6.02534,-1.82166 5.62105,-1.82449 8.2501,0.0578 1.22877,0.87973 2.19048,1.73039 2.13714,1.89035 -0.0533,0.15997 -1.10654,1.00816 -2.34045,1.88487 l -2.24354,1.59401 -2.28151,-0.58236 c -1.25484,-0.32029 -3.43996,-0.95336 -4.85587,-1.40682 -1.41588,-0.45346 -2.64955,-0.74927 -2.74147,-0.65735 -0.0919,0.0919 1.48654,1.73995 3.50769,3.66231 l 3.67478,3.49519 -0.18074,2.75808 c -0.0994,1.51694 -0.29878,2.87612 -0.44306,3.0204 -0.27004,0.27004 -4.45339,-1.4983 -5.22137,-2.20711 -0.21761,-0.20083 -0.90995,-2.42031 -1.53852,-4.93218 -0.6286,-2.51186 -1.25672,-4.56936 -1.39581,-4.57221 -0.1391,-0.003 -0.35714,0.46742 -0.48449,1.04509 -0.66419,3.0127 -1.89059,7.66628 -2.14624,8.14394 -0.25602,0.47838 -4.52141,2.69042 -5.18782,2.69042 -0.13863,0 -0.31271,-0.21704 -0.38685,-0.48231 z m -25.39379,-19.28434 c -3.02053,-5.89611 -5.13948,-9.53452 -8.75744,-15.03722 -1.9714094,-2.99843 -3.5107085,-5.52535 -3.4206685,-5.6154 0.09,-0.0901 2.6631585,-0.005 5.7180285,0.18858 3.63907,0.23082 8.39487,0.29723 13.79199,0.19263 4.58205,-0.0889 8.23765,-0.0538 8.23765,0.0791 0,0.13129 -0.62011,0.76161 -1.37803,1.40069 -0.75792,0.63909 -1.37804,1.33107 -1.37804,1.53776 0,0.6219 2.45512,5.32123 3.93424,7.53055 2.11317,3.15633 4.23414,5.63371 7.62855,8.91046 1.70064,1.64169 3.0397,3.03727 2.97565,3.10129 -0.0641,0.0641 -0.84989,-0.13681 -1.74636,-0.44632 -2.53934,-0.87669 -6.77956,-1.8986 -9.85289,-2.3746 -2.87018,-0.44455 -11.10691,-0.62361 -12.21793,-0.26562 -0.48912,0.1576 -0.65564,0.53933 -0.92064,2.11038 -0.18377,1.08948 -0.46157,1.91653 -0.64313,1.91463 -0.17578,-0.002 -1.06272,-1.45393 -1.97098,-3.22685 z m 15.54749,-5.93596 c -2.71335,-2.66887 -5.28433,-5.72299 -6.89367,-8.18916 l -0.43895,-0.67266 -2.45492,0.74578 c -1.3502,0.41018 -2.86058,0.82381 -3.35638,0.91916 -0.49582,0.0953 -0.95922,0.26684 -1.02981,0.38106 -0.0706,0.11421 0.11752,0.9223 0.41801,1.79574 0.30053,0.87343 0.682,2.36671 0.84772,3.31841 l 0.30132,1.73036 2.11138,0.18218 c 3.01548,0.2602 8.33394,1.36339 11.06859,2.29592 1.28847,0.43936 2.39534,0.75222 2.45972,0.69522 0.0644,-0.057 -1.30049,-1.4979 -3.03301,-3.20201 z m 49.08214,7.24818 c -0.26499,-1.57112 -0.43149,-1.95275 -0.92064,-2.11026 -1.12655,-0.36275 -9.35004,-0.18674 -12.21794,0.26151 -3.08261,0.48182 -7.32617,1.50626 -9.85288,2.37859 -0.89647,0.30951 -1.68235,0.51035 -1.74637,0.44632 -0.0641,-0.0641 1.27502,-1.4596 2.97566,-3.10129 3.39107,-3.27354 5.5108,-5.74882 7.63047,-8.91046 1.51491,-2.25956 3.93231,-6.87565 3.93231,-7.50882 0,-0.21864 -0.62011,-0.9204 -1.37803,-1.55949 -0.75793,-0.63908 -1.37804,-1.2694 -1.37804,-1.40069 0,-0.13278 3.6556,-0.16785 8.23767,-0.0791 5.39711,0.1046 10.15291,0.0382 13.791965,-0.19264 3.054855,-0.19376 5.62885,-0.27775 5.719937,-0.18663 0.0911,0.0911 -1.328731,2.43201 -3.155202,5.20198 -3.58828,5.44187 -6.06907,9.67866 -8.88474,15.17368 -0.9853,1.92289 -1.93526,3.4982 -2.11104,3.50069 -0.18182,0.002 -0.45911,-0.82239 -0.64313,-1.91346 z m -7.85672,-6.19847 c 1.81901,-0.36116 4.25739,-0.73864 5.41863,-0.83884 l 2.11138,-0.18218 0.30132,-1.73036 c 0.16573,-0.9517 0.5472,-2.44498 0.84772,-3.31841 0.30049,-0.87344 0.48859,-1.68153 0.41801,-1.79574 -0.0706,-0.11422 -0.53399,-0.2857 -1.0298,-0.38106 -0.49579,-0.0953 -2.00618,-0.50898 -3.35639,-0.91916 l -2.45491,-0.74578 -0.43896,0.67266 c -1.60272,2.45604 -4.17325,5.51338 -6.84551,8.1419 -1.70608,1.67812 -3.10192,3.12754 -3.10192,3.22091 0,0.0934 1.08521,-0.19855 2.41157,-0.64876 1.32636,-0.45019 3.89985,-1.11403 5.71886,-1.47518 z m -23.4073,3.11913 c -1.90332,-8.55097 -3.47831,-12.82203 -6.79593,-18.42933 -0.58297,-0.9853 -1.42423,-2.22553 -1.86948,-2.75608 l -0.80954,-0.96463 -1.74898,0.62018 c -0.96195,0.34109 -1.84199,0.62014 -1.95569,0.62011 -0.4586,-1.2e-4 -0.13415,-0.71525 1.35632,-2.98948 3.28993,-5.01991 6.01597,-9.76454 8.93146,-15.54518 1.66285,-3.29696 3.08185,-5.99447 3.1533,-5.99447 0.0715,0 1.36964,2.47697 2.8848,5.50438 2.89919,5.79287 5.0212,9.52248 8.5906,15.09855 2.06782,3.23038 2.41429,3.92608 1.95527,3.9262 -0.11369,3e-5 -0.99373,-0.27902 -1.95569,-0.62011 l -1.74898,-0.62018 -0.81215,0.96463 c -3.01011,3.57518 -6.50862,11.61627 -8.0782,18.56722 -0.37204,1.64747 -0.73838,3.05737 -0.81411,3.13311 -0.0757,0.0757 -0.20311,-0.15597 -0.283,-0.51492 z m 0.96969,-12.27319 c 0.73379,-3.36213 1.71782,-6.34306 3.19366,-9.67461 l 1.25344,-2.82945 -2.49844,-2.35192 c -1.37415,-1.29357 -2.57208,-2.35193 -2.66209,-2.35193 -0.09,0 -1.29144,1.06165 -2.66987,2.35923 l -2.50619,2.35924 1.11274,2.40873 c 1.2616,2.7309 2.61172,6.72494 3.23647,9.57452 0.23267,1.06109 0.4889,2.22294 0.56943,2.58189 0.21746,0.96913 0.38408,0.61287 0.97085,-2.0757 z"
       style="fill:#a0e9e5;stroke-width:0.27560762;fill-opacity:1"
       sodipodi:nodetypes="ccccccccscccccscsccccccccccccccccccsccccscsccccscscccccccccsccscscsscscscscccccccsccssccscccccscccccccssccccccccccccccccccccscccccccscscccccccscsccccccscccssccccccccccscccccccscscccsscccsccccccccccscsccccccccsscccccccccccsscccccc" />
  </g>
</svg>
