<?xml version="1.0" encoding="UTF-8" standalone="no"?>
<!-- Created with Inkscape (http://www.inkscape.org/) -->

<svg
   xmlns:dc="http://purl.org/dc/elements/1.1/"
   xmlns:cc="http://creativecommons.org/ns#"
   xmlns:rdf="http://www.w3.org/1999/02/22-rdf-syntax-ns#"
   xmlns:svg="http://www.w3.org/2000/svg"
   xmlns="http://www.w3.org/2000/svg"
   xmlns:sodipodi="http://sodipodi.sourceforge.net/DTD/sodipodi-0.dtd"
   xmlns:inkscape="http://www.inkscape.org/namespaces/inkscape"
   width="400"
   height="400"
   viewBox="0 0 105.83333 105.83334"
   version="1.1"
   id="svg8"
   inkscape:version="0.92.4 (5da689c313, 2019-01-14)"
   sodipodi:docname="icon_hydro.svg">
  <defs
     id="defs2" />
  <sodipodi:namedview
     id="base"
     pagecolor="#ffffff"
     bordercolor="#666666"
     borderopacity="1.0"
     inkscape:pageopacity="0.0"
     inkscape:pageshadow="2"
     inkscape:zoom="0.98994948"
     inkscape:cx="212.7611"
     inkscape:cy="267.70394"
     inkscape:document-units="mm"
     inkscape:current-layer="layer1"
     showgrid="false"
     units="px"
     showguides="true"
     inkscape:guide-bbox="true"
     inkscape:window-width="1366"
     inkscape:window-height="705"
     inkscape:window-x="-8"
     inkscape:window-y="-8"
     inkscape:window-maximized="1">
    <sodipodi:guide
       position="0,0"
       orientation="1,0"
       id="guide65"
       inkscape:locked="false"
       inkscape:label=""
       inkscape:color="rgb(0,0,255)" />
    <sodipodi:guide
       position="105.83334,105.83334"
       orientation="1,0"
       id="guide67"
       inkscape:locked="false"
       inkscape:label=""
       inkscape:color="rgb(0,0,255)" />
    <sodipodi:guide
       position="0,0"
       orientation="0,1"
       id="guide69"
       inkscape:locked="false"
       inkscape:label=""
       inkscape:color="rgb(0,0,255)" />
    <sodipodi:guide
       position="0,105.83334"
       orientation="0,1"
       id="guide71"
       inkscape:locked="false"
       inkscape:label=""
       inkscape:color="rgb(0,0,255)" />
  </sodipodi:namedview>
  <metadata
     id="metadata5">
    <rdf:RDF>
      <cc:Work
         rdf:about="">
        <dc:format>image/svg+xml</dc:format>
        <dc:type
           rdf:resource="http://purl.org/dc/dcmitype/StillImage" />
        <dc:title />
      </cc:Work>
    </rdf:RDF>
  </metadata>
  <g
     inkscape:label="Camada 1"
     inkscape:groupmode="layer"
     id="layer1"
     transform="translate(0,-191.16665)">
    <path
       inkscape:connector-curvature="0"
       id="path31"
       d="m 47.233369,293.83514 c -4.484652,-0.52334 -10.730628,-2.19773 -13.586593,-3.642 -0.799995,-0.40467 -2.228144,-1.2574 -3.173561,-1.89516 -1.796301,-1.21158 -5.300227,-4.40323 -5.300227,-4.82792 0,-0.13524 0.647961,0.0823 1.439938,0.48382 2.272973,1.1518 7.357403,3.16846 10.019971,3.97442 6.13195,1.85586 16.21061,2.69819 21.402569,1.78861 9.642705,-1.68944 17.955262,-8.96908 20.97939,-18.3728 3.277403,-10.1916 0.795123,-20.76639 -6.614035,-28.1756 -5.048035,-5.04792 -11.159316,-7.66915 -18.578001,-7.96811 -3.627696,-0.14629 -3.822603,-0.12227 -9.910933,1.22111 -2.214815,0.48857 -2.377887,0.48901 -3.636351,0.0108 -2.656943,-1.01471 -4.171064,-3.02031 -4.408853,-5.84024 -0.118891,-1.40853 -0.02166,-1.87567 0.671795,-3.22097 0.983102,-1.90837 2.271879,-2.84113 5.328384,-3.85672 10.461216,-3.4761 21.479233,-1.91563 31.005205,4.39098 4.222392,2.79555 9.068921,8.40483 11.541996,13.35878 3.927756,7.86743 4.618381,17.71706 1.820782,25.96791 -2.809405,8.2856 -8.349919,15.12755 -15.709164,19.39934 -2.215565,1.28606 -2.566412,1.61145 -2.069165,1.91878 0.437237,0.27026 4.43743,-1.76037 7.66112,-3.889 3.12191,-2.06148 7.722963,-6.3718 9.896312,-9.27086 4.080102,-5.44264 6.965842,-12.38984 7.927612,-19.08499 0.52777,-3.6747 0.39102,-10.04401 -0.29095,-13.54592 -0.85566,-4.39367 -1.54088,-6.46253 -3.44893,-10.41335 -5.612412,-11.62049 -17.153648,-20.31171 -30.000884,-22.59216 -9.100639,-1.61536 -17.738165,-0.28187 -26.195718,4.04437 -5.388698,2.75634 -9.570696,6.21489 -13.464559,11.13539 -2.745833,3.46981 -4.770614,4.22432 -8.287981,3.08834 -3.0069064,-0.97119 -4.8662295,-3.69895 -4.4003985,-6.45605 0.3949057,-2.33719 2.7902435,-6.08985 7.1283815,-11.16755 6.169428,-7.22097 17.160694,-13.54101 27.095868,-15.58019 11.561803,-2.37313 22.024329,-1.1754 32.47256,3.71736 10.517957,4.92535 18.383851,12.88123 23.833493,24.10606 3.688018,7.5965 4.827478,12.67723 4.818818,21.48749 0.0784,7.91767 -1.72636,15.08268 -5.018488,21.77387 -7.035892,14.1475 -20.456482,24.29069 -36.19466,27.35575 -3.575173,0.69627 -11.188993,0.9949 -14.754743,0.57878 z m 0.42978,-8.70358 c -6.40224,-2.09149 -10.596361,-6.46426 -12.194954,-12.71469 -1.573019,-6.15058 0.0606,-11.87173 4.732521,-16.57045 3.893102,-3.91574 7.895232,-5.45898 13.478847,-5.1978 4.873602,0.22794 8.222472,1.6628 11.494564,4.92493 1.921366,1.91554 2.876426,3.56425 3.800621,6.56119 0.715647,2.32115 0.751052,3.31541 0.185379,5.22033 -1.455205,4.90001 -6.452036,6.52199 -9.773072,3.17216 -0.872658,-0.88014 -1.456734,-1.91077 -2.250991,-3.97183 -1.236594,-3.20876 -2.365443,-4.46917 -4.550807,-5.08107 -2.922559,-0.81819 -5.987945,0.0496 -8.771682,2.48542 -1.830208,1.60109 -2.742374,3.16489 -3.186993,5.46351 -0.748772,3.87134 0.688903,7.91637 3.867983,10.88288 2.939449,2.74303 5.6331,3.77042 9.901291,3.77681 3.367384,0.0109 5.826048,-0.71533 8.901838,-2.6079 0.792414,-0.48758 1.509133,-0.81817 1.592617,-0.73469 0.223397,0.22338 -2.66083,2.43432 -4.174522,3.19997 -3.950596,1.99838 -9.13367,2.47147 -13.05264,1.19123 z M 16.715977,271.08813 c -1.202489,-0.524 -2.652079,-2.26094 -2.873947,-3.44373 -0.572057,-3.04937 2.653372,-5.95546 5.622487,-5.0659 1.527983,0.4578 2.44796,1.2984 2.998357,2.73988 0.855436,2.23994 -0.101789,4.63635 -2.237889,5.60635 -1.41579,0.64265 -2.313137,0.68446 -3.509008,0.1634 z M 6.3122461,250.40012 c -5.42594607,-2.70394 -4.6333141,-10.30803 1.2529524,-12.01913 2.9372805,-0.85391 5.6882075,0.31057 7.2763985,3.0799 3.190441,5.5635 -2.769231,11.80959 -8.5293509,8.93923 z"
       style="fill:#21e1eb;fill-opacity:1;stroke-width:0.2864987"
       sodipodi:nodetypes="cccscccccccccccccccccccccccccccccccccccccccsccccccccccscccccccccccc" />
  </g>
</svg>
