<?xml version="1.0" encoding="UTF-8" standalone="no"?>
<!-- Created with Inkscape (http://www.inkscape.org/) -->

<svg
   xmlns:dc="http://purl.org/dc/elements/1.1/"
   xmlns:cc="http://creativecommons.org/ns#"
   xmlns:rdf="http://www.w3.org/1999/02/22-rdf-syntax-ns#"
   xmlns:svg="http://www.w3.org/2000/svg"
   xmlns="http://www.w3.org/2000/svg"
   xmlns:sodipodi="http://sodipodi.sourceforge.net/DTD/sodipodi-0.dtd"
   xmlns:inkscape="http://www.inkscape.org/namespaces/inkscape"
   width="400"
   height="400"
   viewBox="0 0 105.83333 105.83334"
   version="1.1"
   id="svg8"
   inkscape:version="0.92.4 (5da689c313, 2019-01-14)"
   sodipodi:docname="electro.svg">
  <defs
     id="defs2" />
  <sodipodi:namedview
     id="base"
     pagecolor="#ffffff"
     bordercolor="#666666"
     borderopacity="1.0"
     inkscape:pageopacity="0.0"
     inkscape:pageshadow="2"
     inkscape:zoom="0.061871843"
     inkscape:cx="-3049.0818"
     inkscape:cy="192.22344"
     inkscape:document-units="mm"
     inkscape:current-layer="layer1"
     showgrid="false"
     units="px"
     showguides="true"
     inkscape:guide-bbox="true"
     inkscape:window-width="1366"
     inkscape:window-height="705"
     inkscape:window-x="-8"
     inkscape:window-y="-8"
     inkscape:window-maximized="1">
    <sodipodi:guide
       position="0,0"
       orientation="1,0"
       id="guide65"
       inkscape:locked="false"
       inkscape:label=""
       inkscape:color="rgb(0,0,255)" />
    <sodipodi:guide
       position="105.83334,105.83334"
       orientation="1,0"
       id="guide67"
       inkscape:locked="false"
       inkscape:label=""
       inkscape:color="rgb(0,0,255)" />
    <sodipodi:guide
       position="0,0"
       orientation="0,1"
       id="guide69"
       inkscape:locked="false"
       inkscape:label=""
       inkscape:color="rgb(0,0,255)" />
    <sodipodi:guide
       position="0,105.83334"
       orientation="0,1"
       id="guide71"
       inkscape:locked="false"
       inkscape:label=""
       inkscape:color="rgb(0,0,255)" />
  </sodipodi:namedview>
  <metadata
     id="metadata5">
    <rdf:RDF>
      <cc:Work
         rdf:about="">
        <dc:format>image/svg+xml</dc:format>
        <dc:type
           rdf:resource="http://purl.org/dc/dcmitype/StillImage" />
        <dc:title />
      </cc:Work>
    </rdf:RDF>
  </metadata>
  <g
     inkscape:label="Camada 1"
     inkscape:groupmode="layer"
     id="layer1"
     transform="translate(0,-191.16665)">
    <path
       inkscape:connector-curvature="0"
       id="path27"
       d="m 48.566499,296.85693 c -4.664683,-0.41084 -13.558986,-2.59365 -13.558986,-3.3276 0,-0.15613 1.800491,-0.26372 4.413261,-0.26372 6.64963,0 11.750494,-0.80477 16.005277,-2.52516 0.80499,-0.32549 1.418631,-0.72682 1.363619,-0.89186 -0.05501,-0.16502 -0.900434,-0.53072 -1.878699,-0.81266 -11.633777,-3.35289 -19.35628,-8.9466 -23.322483,-16.89337 -2.043943,-4.09535 -2.511238,-6.18896 -2.521561,-11.29797 -0.0042,-2.38399 0.07572,-4.41927 0.178903,-4.52284 0.103225,-0.10354 1.007047,0.68025 2.008468,1.74184 2.436273,2.58256 3.838253,3.19946 6.910192,3.04056 4.479913,-0.23171 7.540233,-2.27588 9.585013,-6.40245 2.077567,-4.19272 2.375896,-9.08995 0.808838,-13.27826 -2.073865,-5.54288 -7.750124,-10.47914 -13.412472,-11.66389 -2.458936,-0.51448 -6.926205,-0.5208 -9.321365,-0.0132 -8.458811,1.79274 -14.913558,8.44724 -17.6249097,18.17033 -1.3041518,4.67684 -2.1401612,12.68334 -1.8261766,17.48967 0.2535241,3.881 -0.081367,3.84608 -1.8851104,-0.19653 -3.2855955,-7.36401 -4.97568659,-16.76801 -4.36505754,-24.2879 0.64632386,-7.95927 2.98751834,-16.3043 6.19806374,-22.09242 1.2597974,-2.27123 3.7708385,-5.96596 5.7311035,-8.43277 2.52839,-3.18172 6.933797,-7.40406 7.321033,-7.01683 0.06798,0.068 -0.761775,1.67297 -1.843831,3.5667 -2.721517,4.76298 -4.222132,7.99093 -5.073892,10.91441 -0.728224,2.49953 -1.231068,6.22606 -0.84013,6.22606 0.114981,0 1.200059,-0.93226 2.411266,-2.07168 6.357305,-5.9805 13.019307,-9.5926 19.669324,-10.6646 2.862142,-0.46139 7.728903,-0.20773 10.581246,0.5515 3.580566,0.95307 10.376782,4.5856 10.376782,5.54633 0,0.15072 -0.304886,0.27402 -0.677511,0.27402 -0.372625,0 -1.668609,0.31311 -2.879984,0.69577 -4.153232,1.31201 -6.113361,3.91923 -6.342098,8.4358 -0.184707,3.6468 0.997446,6.61898 3.774163,9.4892 5.249982,5.42676 13.536688,6.6869 20.791268,3.16169 4.668029,-2.26834 8.668734,-7.33036 10.221233,-12.93274 0.690104,-2.49024 0.774911,-7.7021 0.171708,-10.54806 -1.804402,-8.51303 -9.742078,-16.96203 -21.576449,-22.96637 -1.609508,-0.81662 -2.926974,-1.57816 -2.927664,-1.6923 -0.0031,-0.58758 7.03286,0.20895 11.54991,1.30747 13.172335,3.20342 25.933914,13.00362 33.069185,25.39532 2.445274,4.24667 5.128944,11.51505 5.646874,15.29377 0.24656,1.79881 -0.0845,1.51318 -1.8451,-1.59178 -2.55684,-4.50925 -4.747944,-7.46972 -7.736979,-10.45363 -2.800604,-2.79576 -4.234776,-3.8872 -4.612108,-3.50985 -0.09758,0.0976 0.03148,0.92168 0.286761,1.83141 2.24597,8.0046 2.32011,16.20697 0.20302,22.46257 -2.081907,6.15162 -5.170653,10.28538 -10.046493,13.44551 -2.317004,1.5017 -5.950679,3.31096 -6.183003,3.07861 -0.0844,-0.0844 0.16243,-1.09437 0.548474,-2.24439 1.41794,-4.22398 0.830257,-7.27531 -1.937058,-10.05699 -3.362068,-3.37957 -7.805459,-4.20253 -13.098059,-2.42586 -2.885161,0.96852 -4.904506,2.26148 -6.988474,4.47462 -4.210732,4.47178 -5.862242,10.75359 -4.41552,16.79551 1.079619,4.5089 3.623541,8.67602 7.005396,11.47536 1.939662,1.60556 5.857933,3.624 8.37528,4.31441 2.555593,0.7009 8.582368,0.85225 11.568338,0.29052 5.21072,-0.98027 13.39896,-4.43876 18.696842,-7.89705 1.4266,-0.93123 2.642566,-1.64438 2.702169,-1.58477 0.211962,0.21195 -2.6,4.24483 -4.727549,6.78021 -6.285308,7.49016 -16.531506,13.94359 -26.22056,16.5147 -5.867973,1.55714 -13.154409,2.26498 -18.483728,1.79561 z"
       style="fill:#a757cb;stroke-width:0.27671406;fill-opacity:1"
       sodipodi:nodetypes="sssccsccccccscscccccccscscscssccscccccscccccccccccscccsscccss" />
  </g>
</svg>
