<?xml version="1.0" encoding="UTF-8" standalone="no"?>
<!-- Created with Inkscape (http://www.inkscape.org/) -->

<svg
   xmlns:dc="http://purl.org/dc/elements/1.1/"
   xmlns:cc="http://creativecommons.org/ns#"
   xmlns:rdf="http://www.w3.org/1999/02/22-rdf-syntax-ns#"
   xmlns:svg="http://www.w3.org/2000/svg"
   xmlns="http://www.w3.org/2000/svg"
   xmlns:sodipodi="http://sodipodi.sourceforge.net/DTD/sodipodi-0.dtd"
   xmlns:inkscape="http://www.inkscape.org/namespaces/inkscape"
   width="400"
   height="400"
   viewBox="0 0 105.83333 105.83334"
   version="1.1"
   id="svg8"
   inkscape:version="0.92.4 (5da689c313, 2019-01-14)"
   sodipodi:docname="dendro.svg">
  <defs
     id="defs2" />
  <sodipodi:namedview
     id="base"
     pagecolor="#ffffff"
     bordercolor="#666666"
     borderopacity="1.0"
     inkscape:pageopacity="0.0"
     inkscape:pageshadow="2"
     inkscape:zoom="0.087499999"
     inkscape:cx="947.04964"
     inkscape:cy="1151.2917"
     inkscape:document-units="mm"
     inkscape:current-layer="layer1"
     showgrid="false"
     units="px"
     showguides="true"
     inkscape:guide-bbox="true"
     inkscape:window-width="1366"
     inkscape:window-height="705"
     inkscape:window-x="-8"
     inkscape:window-y="-8"
     inkscape:window-maximized="1"
     inkscape:snap-bbox="true"
     inkscape:bbox-paths="true"
     inkscape:bbox-nodes="true"
     inkscape:snap-bbox-edge-midpoints="true">
    <sodipodi:guide
       position="0,0"
       orientation="1,0"
       id="guide65"
       inkscape:locked="false"
       inkscape:label=""
       inkscape:color="rgb(0,0,255)" />
    <sodipodi:guide
       position="105.83334,105.83334"
       orientation="1,0"
       id="guide67"
       inkscape:locked="false"
       inkscape:label=""
       inkscape:color="rgb(0,0,255)" />
    <sodipodi:guide
       position="0,0"
       orientation="0,1"
       id="guide69"
       inkscape:locked="false"
       inkscape:label=""
       inkscape:color="rgb(0,0,255)" />
    <sodipodi:guide
       position="0,105.83334"
       orientation="0,1"
       id="guide71"
       inkscape:locked="false"
       inkscape:label=""
       inkscape:color="rgb(0,0,255)" />
  </sodipodi:namedview>
  <metadata
     id="metadata5">
    <rdf:RDF>
      <cc:Work
         rdf:about="">
        <dc:format>image/svg+xml</dc:format>
        <dc:type
           rdf:resource="http://purl.org/dc/dcmitype/StillImage" />
        <dc:title />
      </cc:Work>
    </rdf:RDF>
  </metadata>
  <g
     inkscape:label="Camada 1"
     inkscape:groupmode="layer"
     id="layer1"
     transform="translate(0,-191.16665)">
    <path
       inkscape:connector-curvature="0"
       id="path25"
       d="m 51.958628,293.29721 c -3.693314,-8.06598 -6.609264,-11.0385 -14.972626,-15.26346 -11.485341,-5.80208 -17.885484,-10.81426 -21.335724,-16.70854 -1.82918,-3.125 -3.228037,-6.42589 -3.512868,-8.28935 -0.188552,-1.23374 -0.551166,-1.9858 -0.957382,-1.9858 -0.109256,0 -1.057334,0.8544 -2.1067617,1.89867 -1.796625,1.78779 -1.968195,1.88891 -2.938022,1.73152 -1.823234,-0.29586 -6.135215036667,-2.70346 -6.135215036667,-3.42558 0,-0.40214 2.945366036667,-2.66884 4.493835036667,-3.45842 0.503779,-0.25689 1.186387,-0.46708 1.516874,-0.46708 0.78764,0 2.201424,0.7364 3.373103,1.75702 1.0550597,0.91909 1.2891627,0.9797 1.7305227,0.44794 0.216903,-0.26144 0.221555,-0.95896 0.01513,-2.36133 -0.330592,-2.25004 -0.161505,-4.69578 0.612616,-8.8596 0.827349,-4.45061 2.005412,-7.21763 4.608608,-10.82483 1.187253,-1.64524 0.668871,-2.36756 -1.361201,-1.89655 -0.609477,0.1414 -2.015364,0.26015 -3.1243,0.26391 -1.774667,0.007 -2.2005567,-0.10461 -3.5552797,-0.92339 -1.191039,-0.71988 -1.755193,-1.31855 -2.494807,-2.64756 -1.201209,-2.15809 -2.856222,-7.22389 -2.482362,-7.59777 0.379168,-0.37918 7.6570737,0.24637 9.2191667,0.7924 1.409017,0.49252 3.031046,1.80334 3.603629,2.91232 0.211489,0.40954 0.539702,1.77502 0.729444,3.03439 0.189751,1.25938 0.442558,2.48297 0.561774,2.7191 0.324313,0.64206 1.080158,0.68041 1.835679,0.0931 4.108711,-3.194 5.241231,-3.86999 8.623857,-5.14747 2.768763,-1.04568 6.166858,-1.81507 8.014219,-1.81461 4.155775,9.6e-4 9.735828,2.22909 12.82918,5.12259 1.902968,1.78001 2.346821,2.68515 1.888032,3.85084 -0.544783,1.38436 -1.665079,2.76128 -2.246642,2.76128 -0.287865,0 -1.019041,-0.61181 -1.624731,-1.35956 -1.323556,-1.63399 -1.646032,-1.91405 -3.083942,-2.67901 -2.738853,-1.45701 -7.215383,-2.18444 -10.306251,-1.67474 -3.156742,0.52053 -5.033148,1.05896 -6.901069,1.98022 -4.305054,2.12336 -8.015351,7.07315 -9.412904,12.55752 -0.534727,2.09855 -0.615755,7.00297 -0.158812,9.61963 1.10905,6.3516 4.791433,12.42914 9.82832,16.22097 3.054897,2.29974 8.504917,5.42383 11.420534,6.54653 6.672216,2.56923 10.652853,5.48416 13.176972,9.64917 1.340985,2.21272 1.94775,2.27747 3.045222,0.32492 0.984527,-1.75174 4.132515,-4.94851 6.270115,-6.36713 1.88944,-1.254 4.20305,-2.40469 7.8003,-3.87948 2.04684,-0.83916 6.86088,-3.45486 9.40717,-5.11137 0.86576,-0.56327 2.83785,-2.30613 4.38253,-3.87301 2.50335,-2.53959 2.97727,-3.19378 4.36499,-6.02581 3.1072,-6.34103 3.84898,-12.56088 2.13046,-17.863 -0.47144,-1.45433 -1.13111,-3.18791 -1.46603,-3.85239 -1.72317,-3.41905 -4.73172,-6.57601 -7.70067,-8.08048 -1.39215,-0.7055 -5.0926,-1.67504 -7.64712,-2.0036 -2.36488,-0.30417 -7.02477,0.58999 -9.4035,1.8044 -1.2593,0.64284 -2.87353,2.10063 -3.631,3.27911 -0.27823,0.4329 -0.7381,0.78711 -1.021956,0.78711 -0.932171,0 -2.619217,-2.40117 -2.619217,-3.72793 0,-0.77358 2.885013,-3.82109 4.530613,-4.78573 3.07075,-1.80008 7.63965,-3.22169 10.35276,-3.2212 4.25325,8.6e-4 11.28613,2.62915 14.84249,5.54704 2.69969,2.21502 3.762,2.43425 3.762,0.77635 0,-1.53815 0.87971,-4.72925 1.61219,-5.84812 1.31404,-2.00716 4.02693,-2.82515 10.265999,-3.09542 l 2.28981,-0.0992 -0.0747,0.71556 c -0.0411,0.39355 -0.31567,1.35954 -0.61023,2.14666 -0.29468,0.78711 -0.84076,2.24839 -1.21355,3.24728 -0.82194,2.2025 -2.249999,3.94773 -3.810139,4.6564 -1.36142,0.61838 -4.10655,0.7067 -6.02413,0.19386 -1.11834,-0.29913 -1.35698,-0.28272 -1.76081,0.12116 -0.43207,0.43205 -0.33557,0.68011 1.28483,3.30188 1.83633,2.97128 2.3122,4.07567 3.17568,7.37004 1.04923,4.00282 1.25152,5.83567 1.06069,9.60675 -0.16021,3.16581 -0.12527,3.66432 0.26795,3.8152 0.627,0.24062 0.51894,0.29305 1.95046,-0.94596 1.85169,-1.60261 2.688562,-1.71003 4.846819,-0.62215 2.13229,1.07485 4.04294,2.70572 3.82745,3.26708 -0.24297,0.63316 -3.54295,2.66746 -4.97955,3.06969 -1.157177,0.32397 -1.410969,0.30476 -2.300199,-0.17411 -0.54976,-0.29605 -1.45143,-1.08988 -2.00389,-1.76407 -1.21895,-1.48754 -2.27066,-1.67166 -2.50584,-0.43869 -0.39583,2.07477 -2.04165,6.45809 -3.19742,8.51509 -2.31609,4.12251 -4.52456,6.54906 -8.93293,9.81547 -2.91594,2.16061 -9.49437,6.09783 -12.81933,7.67238 -1.52294,0.72125 -4.04262,2.15648 -5.59909,3.18943 -3.96733,2.63284 -5.91973,5.04776 -8.847136,10.94257 l -1.63826,3.29918 -1.035043,-2.26028 z m 8.761143,-32.01474 c 0.5212,-0.66904 2.62494,-2.95566 4.67524,-5.08137 3.97198,-4.11831 5.24589,-6.10353 5.91324,-9.21501 0.70348,-3.28015 -0.32573,-7.26146 -2.49881,-9.66689 -0.81317,-0.90009 -1.46819,-1.28417 -2.94244,-1.72531 -1.04295,-0.31212 -2.47599,-0.53634 -3.18434,-0.4983 -1.14669,0.0616 -1.2777,0.007 -1.19353,-0.50326 0.14961,-0.90623 1.99956,-2.62362 3.59563,-3.33817 2.09876,-0.93953 6.72793,-0.93229 9.12753,0.0143 2.2671,0.89425 3.78678,2.13352 5.26017,4.28955 2.79943,4.09622 2.70077,7.92158 -0.30571,11.86036 -2.21852,2.90631 -2.28083,3.42647 -0.4695,3.91423 1.32389,0.35647 2.77931,1.32528 3.54609,2.36035 0.69418,0.93711 0.46376,1.29528 -0.53916,0.8383 -0.40167,-0.18299 -1.93899,-0.33271 -3.41638,-0.33271 -3.8731,0 -6.45629,0.97617 -12.9564,4.8961 -1.81837,1.09663 -3.68336,2.31122 -4.14431,2.69909 -1.29067,1.08603 -1.51784,0.83754 -0.46732,-0.51122 z m -17.020768,-0.30844 c -2.538189,-1.89849 -7.509412,-4.63317 -10.513088,-5.78337 -2.585891,-0.99023 -2.821174,-1.02897 -5.422382,-0.893 -1.495449,0.0782 -3.137704,0.23126 -3.649275,0.3402 -0.611103,0.13011 -0.930231,0.0887 -0.930231,-0.12066 0,-0.68853 2.236481,-2.51758 3.736478,-3.05575 1.830969,-0.65692 2.098818,-1.32151 1.043815,-2.59014 -0.37798,-0.45462 -1.254001,-1.72819 -1.946675,-2.83013 -1.17871,-1.87525 -1.265788,-2.15264 -1.358928,-4.33183 -0.08011,-1.87441 0.01513,-2.58617 0.485608,-3.65126 0.867916,-1.96222 3.096168,-4.70575 4.593416,-5.65574 3.87591,-2.45926 9.41377,-2.61017 12.681508,-0.34561 1.214519,0.84168 2.592607,2.61211 2.344985,3.01273 -0.08115,0.13111 -0.954025,0.2384 -1.939854,0.2384 -4.491238,0 -7.112073,2.40616 -8.061873,7.40169 -0.253788,1.33429 -0.281587,2.36953 -0.09304,3.47473 0.641499,3.76655 2.017742,6.09058 5.907181,9.97519 4.510275,4.50478 5.78905,6.05322 4.998804,6.05322 -0.121157,0 -0.965489,-0.5574 -1.876235,-1.23867 z m 6.212895,-42.31392 c -1.6494,-1.62301 -3.39702,-3.57144 -3.883607,-4.32987 -2.346384,-3.65638 -1.426865,-7.52473 3.449697,-14.51385 1.263096,-1.81035 2.586005,-3.6637 2.939743,-4.11857 l 0.643012,-0.82702 0.533215,0.68391 c 0.293164,0.37617 1.473168,2.03696 2.622244,3.69071 5.072689,7.30082 6.006909,10.68981 4.028449,14.61374 -0.74654,1.48068 -5.617049,6.82032 -6.812854,7.46914 -0.436936,0.23706 -1.005732,-0.19412 -3.519899,-2.66819 z"
       style="fill:#23c18a;stroke-width:0.28622156;fill-opacity:1"
       sodipodi:nodetypes="csccsccscsccccccccccccsccccccscccccccccccscccccccccsscccsccccccccccccccccccccccccccccccccccccccccccsccccccccsscccccccscccscccccccccccc" />
  </g>
</svg>
