<?xml version="1.0" encoding="UTF-8" standalone="no"?>
<!-- Created with Inkscape (http://www.inkscape.org/) -->

<svg
   xmlns:dc="http://purl.org/dc/elements/1.1/"
   xmlns:cc="http://creativecommons.org/ns#"
   xmlns:rdf="http://www.w3.org/1999/02/22-rdf-syntax-ns#"
   xmlns:svg="http://www.w3.org/2000/svg"
   xmlns="http://www.w3.org/2000/svg"
   xmlns:sodipodi="http://sodipodi.sourceforge.net/DTD/sodipodi-0.dtd"
   xmlns:inkscape="http://www.inkscape.org/namespaces/inkscape"
   width="400"
   height="400"
   viewBox="0 0 105.83333 105.83334"
   version="1.1"
   id="svg8"
   inkscape:version="0.92.4 (5da689c313, 2019-01-14)"
   sodipodi:docname="anemo.svg">
  <defs
     id="defs2" />
  <sodipodi:namedview
     id="base"
     pagecolor="#ffffff"
     bordercolor="#666666"
     borderopacity="1.0"
     inkscape:pageopacity="0.0"
     inkscape:pageshadow="2"
     inkscape:zoom="0.030935921"
     inkscape:cx="-2327.2844"
     inkscape:cy="-130.78049"
     inkscape:document-units="mm"
     inkscape:current-layer="layer1"
     showgrid="false"
     units="px"
     showguides="true"
     inkscape:guide-bbox="true"
     inkscape:window-width="1366"
     inkscape:window-height="705"
     inkscape:window-x="-8"
     inkscape:window-y="-8"
     inkscape:window-maximized="1"
     inkscape:snap-bbox="true"
     inkscape:bbox-paths="true"
     inkscape:bbox-nodes="true"
     inkscape:snap-bbox-edge-midpoints="true">
    <sodipodi:guide
       position="0,0"
       orientation="1,0"
       id="guide65"
       inkscape:locked="false"
       inkscape:label=""
       inkscape:color="rgb(0,0,255)" />
    <sodipodi:guide
       position="105.83334,105.83334"
       orientation="1,0"
       id="guide67"
       inkscape:locked="false"
       inkscape:label=""
       inkscape:color="rgb(0,0,255)" />
    <sodipodi:guide
       position="0,0"
       orientation="0,1"
       id="guide69"
       inkscape:locked="false"
       inkscape:label=""
       inkscape:color="rgb(0,0,255)" />
    <sodipodi:guide
       position="0,105.83334"
       orientation="0,1"
       id="guide71"
       inkscape:locked="false"
       inkscape:label=""
       inkscape:color="rgb(0,0,255)" />
  </sodipodi:namedview>
  <metadata
     id="metadata5">
    <rdf:RDF>
      <cc:Work
         rdf:about="">
        <dc:format>image/svg+xml</dc:format>
        <dc:type
           rdf:resource="http://purl.org/dc/dcmitype/StillImage" />
        <dc:title />
      </cc:Work>
    </rdf:RDF>
  </metadata>
  <g
     inkscape:label="Camada 1"
     inkscape:groupmode="layer"
     id="layer1"
     transform="translate(0,-191.16665)">
    <path
       inkscape:connector-curvature="0"
       id="path33"
       d="m 52.392385,292.73344 c -0.1439,-0.18649 -1.0146,-1.76782 -1.9348,-3.51407 -4.0755,-7.7334 -6.4427,-11.08828 -11.3434,-16.07616 -2.6809,-2.7286 -3.7533,-3.98908 -3.5591,-4.18327 0.5842,-0.58416 2.3824,-0.3288 4.0185,0.57064 1.5743,0.86548 1.6176,0.87311 3.0001,0.52879 5.8071,-1.44624 9.5715,-6.44494 8.7508,-11.62016 -0.8355,-5.26933 -4.0898,-9.20101 -9.9938,-12.07406 -2.9884,-1.45424 -5.1251,-2.04118 -11.1142,-3.05306 -6.0398,-1.02045 -7.0556,-1.30971 -10.4494,-2.97556 -2.3603,-1.15863 -3.1215,-1.70369 -5.0616,-3.6248 -1.703,-1.68621 -2.5318,-2.75652 -3.259801,-4.20959 -1.2064,-2.40817 -1.9973002,-5.41464 -1.9973002,-7.59255 0,-2.20383 0.8823002,-7.21321 1.6747002,-9.50896 0.932101,-2.69993 2.347401,-5.7456 2.556901,-5.50219 0.1,0.11579 0.3927,1.46068 0.6512,2.98865 0.5401,3.19216 1.5699,6.52003 2.9256,9.45423 1.3355,2.89045 4.6674,7.78411 6.7199,9.86956 2.2866,2.32333 7.3393,5.62092 13.7051,8.9445 5.4141,2.82671 7.2877,3.99519 9.6821,6.03842 1.7859,1.52405 3.7188,4.02004 4.3204,5.57922 0.6127,1.58783 1.1334,1.45289 2.0525,-0.53192 0.9421,-2.03439 4.439,-5.64291 7.1866,-7.416 1.0261,-0.66217 4.4194,-2.53408 7.5406,-4.15978 6.7964,-3.53992 9.5466,-5.31914 12.0512,-7.79647 5.0966,-5.0411 8.5544,-11.39929 10.0058,-18.39891 1.0783,-5.20017 0.8821,-4.84632 1.7581,-3.17035 0.9276,1.77467 2.161,5.48285 2.7721,8.33436 0.6354,2.96456 0.6472,7.72506 0.024,9.78959 -1.1891,3.94177 -3.4239,6.94803 -6.8615,9.22982 -3.7324,2.47756 -6.5558,3.50384 -12.4876,4.53911 -10.1532,1.77202 -13.5471,3.15401 -17.4885,7.12124 -4.3958,4.42467 -5.6036,9.30848 -3.4117,13.79568 1.32,2.70219 5.4358,5.73147 8.3114,6.11716 0.8332,0.11176 1.318,-0.0226 2.4788,-0.68673 1.4957,-0.85573 3.6642,-1.14416 4.0393,-0.53725 0.1006,0.16274 -1.3712,1.86322 -3.3778,3.9026 -5.1345,5.21845 -7.1366,8.01646 -11.2534,15.72723 -1.7283,3.23731 -2.4414,4.34824 -2.6322,4.10104 z m 1.6492,-9.53334 c 0.5514,-1.05503 1.4591,-2.64547 2.0172,-3.53432 0.558,-0.88885 1.0146,-1.749 1.0146,-1.91143 0,-0.16244 -0.387,-0.4924 -0.8599,-0.73325 -0.473,-0.24085 -1.4116,-0.83922 -2.086,-1.32971 -0.6743,-0.4905 -1.4021,-0.89181 -1.6173,-0.89181 -0.2151,0 -0.854,0.36903 -1.4197,0.82006 -0.5657,0.45104 -1.4751,1.04877 -2.0208,1.3283 -0.5457,0.27953 -0.9922,0.6296 -0.9922,0.77793 0,0.14834 0.7957,1.60443 1.768,3.23577 0.9724,1.63134 1.9277,3.23396 2.1228,3.56138 0.5816,0.9759 1.0171,0.698 2.0733,-1.32292 z m 5.4116,-9.1661 c 1.2203,-0.33953 0.9083,-0.91947 -0.924,-1.7177 -2.0821,-0.90706 -4.0421,-2.60055 -4.9157,-4.24727 -0.3521,-0.66382 -0.8193,-1.20695 -1.038,-1.20695 -0.2188,0 -0.6821,0.53595 -1.0296,1.191 -0.8478,1.59803 -2.5554,3.12258 -4.6598,4.16031 -2.4652,1.21568 -2.2743,1.66015 0.7131,1.66015 2.1562,0 2.3599,-0.0499 3.5081,-0.8599 1.3678,-0.96481 1.7787,-1.04524 2.2764,-0.44557 1.0088,1.21557 4.1997,1.98623 6.0695,1.46593 z m -21.0329,-8.09874 c -1.3007,-0.46015 -2.249,-1.50592 -2.249,-2.48008 0,-0.70499 0.07,-0.7425 1.9371,-1.03271 4.362,-0.67815 6.5296,-2.60238 6.5296,-5.79656 0,-2.14333 -1.8938,-4.89279 -3.9047,-5.66894 -1.303,-0.50295 -3.5651,-0.34031 -5.2501,0.37746 -12.3485,5.25998 -15.5402,6.01994 -20.2158,4.81341 -4.036001,-1.0415 -8.1183012,-4.18981 -10.1226012,-7.80659 -1.9703,-3.55546 -3.3224001,-9.45171 -2.9731001,-12.96459 0.1757,-1.76703 0.8128001,-4.89338 1.0879001,-5.33846 0.085,-0.13762 1.1511,1.16945 2.369,2.9046 2.6277,3.74371 5.2136002,6.57862 8.1538012,8.93903 2.6033,2.0899 5.0266,3.3158 8.366,4.23226 2.2184,0.6088 3.0884,0.6982 7.4083,0.76128 4.091,0.0597 5.199,0.16368 6.7469,0.633 4.6963,1.42386 8.159,3.96643 9.7187,7.13612 0.7644,1.55325 0.8631,2.00301 0.8517,3.87844 -0.021,3.37902 -1.4723,6.03243 -3.9249,7.17441 -1.5281,0.71155 -2.9752,0.78757 -4.5288,0.23792 z m 24.3416,0.0784 c -3.0453,-1.0645 -5.0252,-5.02754 -4.3587,-8.72445 1.2144,-6.73565 7.937,-10.61561 18.1906,-10.49875 4.108,0.0468 5.6855,-0.2261 9.4104,-1.62815 4.0786,-1.53511 8.9767,-5.92489 13.2514,-11.8761 1.264695,-1.76068 2.403205,-3.20123 2.530105,-3.20123 0.49231,0 1.16451,4.10438 1.14841,7.01145 -0.052,9.44478 -5.475315,17.2526 -13.252615,19.08102 -2.4756,0.58199 -6.0959,0.36735 -9.1925,-0.545 -1.3097,-0.38588 -4.4027,-1.59761 -6.8733,-2.69274 -2.4706,-1.09513 -5.0006,-2.08617 -5.6224,-2.20232 -2.5414,-0.47479 -5.3835,0.74416 -6.6134,2.83639 -1.0402,1.7695 -1.0445,4.16218 -0.011,5.92068 0.8933,1.51961 2.2509,2.23251 5.3742,2.82216 2.4638,0.46515 2.6204,0.654 1.8219,2.19812 -0.7709,1.49074 -3.6784,2.2417 -5.8033,1.49892 z m -20.3712,-26.96348 c -10.6882,-3.65525 -16.2273,-7.59541 -19.6797,-13.99874 -1.592,-2.95273 -2.2518,-5.95282 -2.239,-10.18 0.01,-3.0215 0.099,-3.71294 0.7422,-5.68854 1.7983,-5.5267 4.2109,-8.64638 9.4244,-12.18685 1.6423,-1.11522 3.5616,-2.08467 4.1474,-2.09485 0.219,-0.004 0.072,0.5198 -0.426,1.51555 -2.4057,4.81159 -3.477,11.6768 -2.6655,17.0811 0.6139,4.08798 2.2615,9.6285 3.9681,13.34375 1.9622,4.27188 5.4603,8.93725 8.6809,11.57775 1.499,1.22894 1.9066,1.7225 1.4189,1.71794 -0.1091,-0.001 -1.6264,-0.49022 -3.3717,-1.08711 z m 19.7466,-2.01989 c 5.7235,-5.86377 9.0523,-12.10516 10.8647,-20.37066 0.8517,-3.88422 0.8373,-10.61321 -0.03,-14.09131 -0.6769,-2.71385 -1.6582,-5.50361 -2.3446,-6.66564 -0.236,-0.39953 -0.3581,-0.79741 -0.2713,-0.88418 0.087,-0.0868 0.9139,0.22246 1.8381,0.68716 7.7335,3.88842 12.1457,10.34166 12.5793,18.39867 0.3068,5.69945 -1.0163,9.96067 -4.4242,14.24922 -3.666,4.61315 -8.9548,7.87426 -17.0157,10.4919 -2.1911,0.71153 -4.0393,1.29369 -4.1071,1.29369 -0.068,0 1.2421,-1.39898 2.9111,-3.10885 z"
       style="fill:#72e2c3;stroke-width:0.26458332;fill-opacity:1"
       sodipodi:nodetypes="cccccccsscccscccccccccccscccccscccccccccccsccscssccccccsccsccccscsccccccccccccccccccccscccsccccccccccccccccccccccccccccscc" />
  </g>
</svg>
