<?xml version="1.0" encoding="UTF-8" standalone="no"?>
<!-- Created with Inkscape (http://www.inkscape.org/) -->

<svg
   xmlns:dc="http://purl.org/dc/elements/1.1/"
   xmlns:cc="http://creativecommons.org/ns#"
   xmlns:rdf="http://www.w3.org/1999/02/22-rdf-syntax-ns#"
   xmlns:svg="http://www.w3.org/2000/svg"
   xmlns="http://www.w3.org/2000/svg"
   xmlns:sodipodi="http://sodipodi.sourceforge.net/DTD/sodipodi-0.dtd"
   xmlns:inkscape="http://www.inkscape.org/namespaces/inkscape"
   width="400"
   height="400"
   viewBox="0 0 105.83333 105.83334"
   version="1.1"
   id="svg8"
   sodipodi:docname="pyro.svg"
   inkscape:version="0.92.4 (5da689c313, 2019-01-14)">
  <defs
     id="defs2" />
  <sodipodi:namedview
     id="base"
     pagecolor="#ffffff"
     bordercolor="#666666"
     borderopacity="1.0"
     inkscape:pageopacity="0.0"
     inkscape:pageshadow="2"
     inkscape:zoom="0.22627417"
     inkscape:cx="1690.3437"
     inkscape:cy="-41.714885"
     inkscape:document-units="mm"
     inkscape:current-layer="layer1"
     showgrid="false"
     units="px"
     inkscape:window-width="1366"
     inkscape:window-height="705"
     inkscape:window-x="-8"
     inkscape:window-y="-8"
     inkscape:window-maximized="1"
     inkscape:snap-bbox="true"
     inkscape:bbox-paths="true"
     inkscape:bbox-nodes="true"
     inkscape:snap-bbox-edge-midpoints="true" />
  <metadata
     id="metadata5">
    <rdf:RDF>
      <cc:Work
         rdf:about="">
        <dc:format>image/svg+xml</dc:format>
        <dc:type
           rdf:resource="http://purl.org/dc/dcmitype/StillImage" />
        <dc:title></dc:title>
      </cc:Work>
    </rdf:RDF>
  </metadata>
  <g
     inkscape:label="Camada 1"
     inkscape:groupmode="layer"
     id="layer1"
     transform="translate(0,-191.16664)">
    <path
       inkscape:connector-curvature="0"
       id="path31"
       d="m 51.781746,291.20041 c -1.9123,-1.5719 -6.9022,-5.3371 -10.3041,-7.7751 -1.2369,-0.8864 -4.3921,-2.8311 -7.0115,-4.3215 -15.3447,-8.7311 -19.4209,-11.6667 -21.232,-15.291 -1.6944,-3.3908 -1.7044,-6.2877 -0.039,-11.2784 1.7491,-5.2422 4.2249,-9.2808 10.5529,-17.21473 4.2445,-5.3217 7.2002,-9.5245 8.477,-12.0537 0.4258,-0.8436 0.8899,-1.6053 1.0313,-1.6927 0.1415,-0.087 0.329,0.2909 0.4168,0.8406 1.1528,7.2207 5.5302,11.6262 15.8679,15.9699 1.3061,0.5487 2.41,1.1038 2.4533,1.2335 0.043,0.1297 -1.0254,0.3826 -2.3748,0.5621 -3.0946,0.4117 -6.6779,1.5982 -9.0678,3.00253 -2.2289,1.3096 -5.7363,4.7716 -6.9759,6.8854 -2.1297,3.6318 -3.123,8.5914 -2.4345,12.1555 0.3997,2.0687 1.7831,5.0165 3.1889,6.7949 0.5841,0.7391 1.0621,1.4068 1.0621,1.4838 0,0.8828 -5.8118,-3.0045 -8.4772,-5.6701 -6.3575,-6.3579 -6.8365,-13.7073 -1.3938,-21.3841 0.6481,-0.91403 1.1382,-1.78233 1.0891,-1.92953 -0.1565,-0.4694 -2.6538,1.39213 -4.9894,3.71913 -3.4344,3.4219 -4.7403,6.3013 -4.7464,10.4663 -0.01,5.3834 2.413,9.4857 7.6243,12.9191 1.4074,0.9273 6.727,3.9121 11.8213,6.6329 6.4745,3.4581 10.3367,5.7043 12.8323,7.4631 1.9635,1.3838 3.7188,2.5792 3.9006,2.6563 0.1819,0.077 3.1585,-1.7026 6.6146,-3.9549 3.4562,-2.2522 8.9139,-5.5286 12.1282,-7.2807 13.2416,-7.2181 15.0464,-8.5974 17.2277,-13.1662 0.9762,-2.0445 1.0051,-2.1895 1.0051,-5.0293 0,-2.8563 -0.024,-2.9717 -1.0126,-4.9732 -1.1634,-2.3539 -3.4312,-4.9268 -5.8876,-6.6797 -1.6545,-1.1806 -2.2279,-1.4049 -2.2279,-0.8716 0,0.1618 0.4066,1.3822 0.9036,2.712 3.1488,8.4263 2.0797,15.2235 -3.2863,20.8922 -1.1555,1.2207 -2.9673,2.8169 -4.0263,3.5471 -5.5307,3.8136 -12.8054,6.1505 -19.1602,6.1551 -7.3366,0 -15.7721,-3.9423 -18.0901,-8.4657 -0.8505,-1.6599 -1.0299,-4.5884 -0.3845,-6.2784 0.6349,-1.6624 2.4707,-3.5749 4.1675,-4.3415 1.1518,-0.5204 1.7856,-0.6188 3.8407,-0.5967 3.2854,0.035 3.4601,0.26 1.5721,2.0207 -2.16,2.0143 -2.9758,3.8848 -2.9724,6.8153 0,2.6162 0.5493,4.1062 2.0595,5.6164 2.9071,2.907 9.2683,3.883 15.2681,2.3424 11.7409,-3.0147 16.6987,-12.3461 11.8897,-22.3786 -0.6926,-1.4448 -1.6152,-2.7693 -2.9067,-4.1727 -3.1998,-3.4769 -5.7362,-4.99523 -14.0714,-8.42283 -7.7451,-3.1849 -10.9648,-5.0739 -13.5506,-7.9499 -1.5613,-1.7366 -3.0081,-4.6898 -3.3902,-6.9202 -0.6728,-3.9281 0.6447,-7.2019 5.5043,-13.6771 4.871,-6.4903 6.3299,-9.3385 7.2474,-14.1491 0.3019,-1.5826 0.5741,-2.3874 0.8075,-2.3874 0.4058,0 4.5299,5.6715 6.2448,8.5879 2.2894,3.8933 2.8831,7.2127 1.7055,9.5361 -0.3578,0.706 -1.9757,2.5367 -3.975,4.4979 -4.7337,4.6433 -6.2276,7.347 -6.213,11.2448 0.01,1.6844 0.1369,2.3801 0.6401,3.4067 0.7281,1.4858 3.3178,4.3985 3.9106,4.3985 0.3468,0 0.3418,-0.08 -0.037,-0.5953 -0.2409,-0.3274 -0.8087,-1.3529 -1.2618,-2.2788 -1.8964,-3.8751 -0.5733,-8.3176 3.8624,-12.9683 1.6912,-1.7732 4.9929,-4.2659 5.6503,-4.2659 0.2745,0 0.3371,0.1721 0.2162,0.5953 -1.2889,4.5136 -1.5952,6.2956 -1.6032,9.3265 -0.01,2.605 0.1031,3.5313 0.6117,5.1594 1.2403,3.9703 3.7243,7.8828 7.3009,11.4994 1.8099,1.83023 1.8431,1.84943 1.9398,1.12413 0.1232,-0.92433 -0.6409,-2.50293 -2.204,-4.55373 -3.1366,-4.1151 -3.9054,-7.8136 -2.4834,-11.9467 0.5284,-1.5356 2.3082,-4.713 3.2596,-5.8191 0.6368,-0.7404 1.2244,-0.6746 1.2244,0.137 0,1.4869 2.6177,7.5983 4.3124,10.0677 1.2477,1.8182 4.2643,4.874 7.352,7.4478 6.6477,5.54103 10.963,13.10533 10.9323,19.16333 -0.037,7.2203 -5.4105,12.8553 -20.0605,21.0352 -3.2586,1.8195 -7.0971,4.1046 -8.5299,5.078 -2.9511,2.0048 -8.0961,6.0554 -9.8904,7.7866 -0.6598,0.6366 -1.3212,1.1575 -1.4698,1.1575 -0.1486,0 -1.0375,-0.6307 -1.9753,-1.4016 z m 6.1001,-23.6827 c 0,-0.137 0.3274,-0.8296 0.7276,-1.5392 0.6549,-1.1612 0.7266,-1.5411 0.7181,-3.8036 -0.01,-2.2208 -0.099,-2.6977 -0.7754,-4.0953 -2.5329,-5.2309 -9.1002,-7.4759 -15.5181,-5.3046 -1.6727,0.5659 -1.821,0.5785 -1.821,0.1547 0,-0.6834 2.4528,-4.0519 3.6184,-4.9693 3.119,-2.4547 7.5038,-3.2934 12.1243,-2.3191 5.0267,1.0601 8.5552,4.2232 10.1074,9.0607 1.1814,3.6823 0.4176,6.4302 -2.5277,9.093 -2.1485,1.9424 -6.6536,4.463 -6.6536,3.7227 z"
       style="fill:#fe925d;fill-opacity:1;stroke-width:0.26458332"
       sodipodi:nodetypes="ccccccccccccccccsccccccccccccsccscccccccccccccccccccscccccscccsccccccccsccccccsccsccccsccccs" />
  </g>
</svg>
